<?xml version="1.0" encoding="UTF-8"?>
<svg width="439.16" height="439.16" version="1.1" viewBox="0 0 439.16079 439.16079" xmlns="http://www.w3.org/2000/svg" xmlns:xlink="http://www.w3.org/1999/xlink">
 <g transform="translate(-81.348 -71.131)">
  <path d="m300.93 71.131a219.58 219.58 0 0 1 219.58 219.58 219.58 219.58 0 1 1 -219.58 -219.58z" fill="#e30016" fill-rule="evenodd"/>
  <g fill-rule="evenodd">
   <path d="m103.89 200.91 15.617 6.0552c31.78-68.456 101.2-116.13 181.42-116.13 78.395 0 146.48 45.539 179.2 111.51l15.452-6.4576c-35.269-71.992-109.33-121.77-194.65-121.77-87.292 0-162.8 52.1-197.03 126.79z" fill="#fff"/>
   <path d="m119.51 206.96 16.733 6.4878c29.146-61.776 92.057-104.71 164.68-104.71 70.974 0 132.67 40.998 162.64 100.52l16.556-6.919c-32.714-65.97-100.8-111.51-179.2-111.51-80.212 0-149.64 47.673-181.42 116.13z" fill="#e30016"/>
   <path d="m463.57 209.26c12.357 24.527 19.326 52.201 19.326 81.45 0 100.22-81.743 181.97-181.97 181.97s-181.97-81.743-181.97-181.97c0-27.621 6.22-53.833 17.313-77.322-0.01 0.0201-0.0197 0.0401-0.0292 0.0603l-16.732-6.4873c-11.837 25.498-18.463 53.873-18.463 83.749 0 110.09 89.789 199.88 199.88 199.88s199.88-89.789 199.88-199.88c0-31.593-7.5093-61.742-20.66-88.347l-0.6568 0.2596-0.0105-0.0117z" fill="#fff"/>
   <path d="m495.6 195.93c14.031 28.655 21.928 60.822 21.928 94.779 0 119.3-97.299 216.6-216.6 216.6-119.3 0-216.6-97.299-216.6-216.6 0-32.004 7.0109-62.421 19.562-89.804l15.616 6.0549c0.0278-0.0601 0.0572-0.1191 0.0851-0.1792-11.89 25.544-18.547 53.982-18.547 83.929 0 110.09 89.789 199.88 199.88 199.88s199.88-89.789 199.88-199.88c0-31.694-7.4511-61.701-20.681-88.369l14.383-6.0109 0.0123 0.0148z" fill="#e30016"/>
  </g>
  <path d="m418.68 152.06c40.046 33.674 65.574 82.449 65.574 138.66 0 100.97-82.351 183.32-183.32 183.32s-183.32-82.351-183.32-183.32c0-21.265 4.9245-43.259 11.839-63.388 11.638-33.878 35.291-63.19 62.508-81.678l-0.7121 64.91c-6.8884 6.5992-15.777 27.735-19.653 39.2l12.082 4.2203c-2.1701 7.6674-3.4841 18.004-4.1341 26.189l-11.038-1.0218c-0.9957 14.569-1.8217 14.795 0.9042 30.976l11.477-1.6087c3.3061 10.848 6.0065 19.815 7.8564 25.422l-10.466 3.8212c3.9092 10.018 7.7459 17.536 13.803 26.247l8.9443-6.1737c4.2735 6.0048 11.355 14.244 16.602 19.395l-7.4263 7.5756c7.679 7.3773 15.517 13.688 24.748 19.117l6.3705-9.1517c6.6484 3.8117 17.016 8.4265 24.356 10.971l-4.3155 9.7182c9.9685 3.3326 20.62 5.5345 31.452 6.4604l1.3306-11.118c12.935 0.9623 13.837 0.9921 29.643-1.3339l1.5853 10.931c10.704-1.6966 20.648-3.7692 30.377-7.8233l-4.5689-11.108c7.0778-3.0415 15.75-7.951 22.083-12.2l6.8061 8.8274c8.8144-6.0529 14.082-10.128 21.238-18.033l-8.2189-8.8371c4.3807-4.947 12.588-14.277 16.147-19.876l9.7322 5.1301c5.5857-9.0035 8.2199-17.472 11.599-27.7l-9.737-4.2549c2.1205-6.6731 4.3871-16.676 5.354-23.778l11.954 0.0983c0.6923-5.5386 0.3527-4.8713 0.3527-10.592 0-5.0815-0.9918-14.301-1.5399-19.241l-11.25 1.5364c-0.8497-6.9229-2.7368-16.242-4.681-22.772l10.489-4.2641c-3.1923-10.296-6.8362-17.193-12.177-26.369-0.1075-0.1875-0.6077-1.013-0.6485-1.0817z" fill="#e8ab1e" fill-rule="evenodd"/>
  <path d="m299.5 213.44c2.2046 0 5.2975 0.8594 5.2975 1.9617 0 1.1022-2.1228 1.8767-4.3274 1.5354-2.2046-0.3414-4.2046-0.991-4.29-1.5812s1.1153-1.9159 3.3199-1.9159zm119.17 4.6023c5.4176 9.0992 9.6339 17.164 12.826 27.459l-10.49 4.2642c1.9443 6.5292 3.8314 15.849 4.6811 22.772l11.25-1.5366c0.5482 4.9396 1.54 14.159 1.54 19.241 0 5.7211 0.3396 5.0539-0.3528 10.592l-11.954-0.0984c-0.9669 7.102-3.2336 17.104-5.3541 23.778l9.737 4.2551c-3.3788 10.229-6.0128 18.697-11.599 27.7l-9.7319-5.1302c-3.5584 5.5984-11.766 14.929-16.147 19.876l8.2187 8.8371c-7.1569 7.9053-12.424 11.98-21.238 18.033l-6.8062-8.8273c-6.333 4.2486-15.005 9.1583-22.083 12.2l4.5691 11.108c-9.7289 4.0541-19.674 6.1267-30.377 7.8234l-1.5853-10.931c-15.806 2.3261-16.708 2.2961-29.643 1.3339l-1.3305 11.118c-10.832-0.9259-21.484-3.1279-31.452-6.4605l4.3153-9.7183c-7.3396-2.5444-17.707-7.1592-24.356-10.971l-6.3706 9.1517c-9.231-5.4295-17.069-11.74-24.748-19.117l7.4264-7.5756c-5.2469-5.1513-12.328-13.39-16.602-19.395l-8.9444 6.1736c-6.057-8.7113-9.8937-16.228-13.803-26.247l10.466-3.8209c-1.8499-5.6076-4.5505-14.575-7.8566-25.423l-11.477 1.6089c-2.0689-12.567-1.9-18.706-0.9042-30.976l11.038 1.0219c0.6499-8.1848 1.9639-18.522 4.1342-26.189l-12.082-4.2204c3.5785-10.343 11.056-30.628 19.51-39.117 32.503 9.6927 58.259 29.836 58.255 74.757-1e-3 13.526-17.574 24.973-31.471 14.454 6.7888 21.954 18.722 26.399 25.497 29.536-0.655-13.194 9.2319-19.431 19.786-16.067-5.6641-4.0738-6.4863-12.064-5.6189-17.367 5.8953 1.8416 26.553-3.9011 29.67-9.2043-4.8066-1.3557-8.1363-8.6832-8.5749-14.918 31.962 3.4849 21.384-25.509 14.2-28.101-6.2479-2.576-11.332-0.7504-20.386-2.2798-8.6077-1.4542-8.338-6.1135-9.3337-9.1798 12.187 6.9282 9.0221-2.6169 18.762-2.5832-9.5524-10.036-16.056-4.673-20.007-2.9744 2.4048-9.8168 12.688-14.396 17.082-13.394 1.3414-6.5296 6.028-10.462 14.995-10.248 18.082 0.4296 31.334 13.76 47.645 7.8634-1.6393 8.3147-6.8537 13.968-10.52 17.059 7.3417 2.8803 5.578 32.818 2.8776 42.667-0.5354 5.908 0.4782 10.991 4.7928 16.978-0.7804 0.1397-5.9008 3.7786-11.822 0.386 1.0177 6.0015 2.3926 13.182 13.954 17.698-0.7972 2.9613-6.5383 10.249-11.357 10.844 14.649 4.9678 10.996 17.37 11.698 21.053 26.682-5.965 32.813-25.348 33.743-29.693-15.674 2.7146-26.941-5.2942-27.522-20.4-1.1295-29.372 39.037-58.74 71.23-69.478z" fill="#fff" fill-rule="evenodd"/>
  <defs>
   <linearGradient id="grad2" x1="219.85" x2="219.85" y1="203.96" y2="259.67" gradientTransform="scale(1.2264 .81538)" gradientUnits="userSpaceOnUse">
    <stop stop-color="#c90" offset="0"/>
    <stop stop-color="#cf9a00" offset=".01"/>
    <stop stop-color="#fdffce" offset=".26"/>
    <stop stop-color="#cf9a00" offset=".36"/>
    <stop stop-color="#cf9a00" offset=".44"/>
    <stop stop-color="#cf9a00" offset=".66"/>
    <stop stop-color="#e1e8e2" offset=".77"/>
    <stop stop-color="#c89a00" offset=".99"/>
    <stop stop-color="#cf9a00" offset="1"/>
   </linearGradient>
  </defs>
  <path d="m282.98 206.14s-0.1108-0.23-0.1108-0.2307c-0.0769-0.2455-0.1548-0.4921-0.232-0.7373-3e-4 -7e-4 -3e-4 -7e-4 -3e-4 -7e-4 -0.0773-0.2455-0.1548-0.49-0.2327-0.7339v-7e-4c-0.0782-0.2438-0.1558-0.4884-0.2344-0.7309v-6e-4c-0.0782-0.2425-0.1564-0.485-0.2347-0.7268v-7e-4c-0.0789-0.2418-0.1578-0.4837-0.2364-0.7234-3e-4 -7e-4 -3e-4 -7e-4 -3e-4 -7e-4 -0.0786-0.2405-0.1568-0.4803-0.2357-0.7197v-7e-4c-0.079-0.2391-0.1585-0.4775-0.2375-0.7156-6e-4 -7e-4 -6e-4 -7e-4 -6e-4 -7e-4 -0.0793-0.2378-0.1585-0.4752-0.2375-0.7116 0-7e-4 -3e-4 -7e-4 -3e-4 -7e-4 -3.0905-9.2524-7.7067-17.227-11.37-26.239 2.7778-0.8447 6.5179 0.4135 7.4838 1.3063 1.9407 2.4108 3.2145 3.1545 3.5853 5.7271 2.1513-2.7159 6.5525-2.1672 7.6227 1.9708 1.1566 4.4716-4.8817 9.3778 2.2662 11.242 5.1507-0.5859 3.1683-5.2749 2.4253-6.292-1.6057-2.532-2.1496-6.6341-0.3177-9.3199 1.1336-1.6602 2.4595-2.3491 3.6557-2.6681 1.1979-0.3194 2.2482-0.2706 2.8748-0.4548 0.0514-0.5514-0.6926-2.5134 0.4027-3.692 1.3862-1.4916 3.8592-3.5626 4.2369-5.3769 0.5889 2.8202 2.4476 3.2442 4.1234 6.2283 0.5084 0.9063-0.0386 2.3339 0.1054 3.1068 6.7696 1.2019 7.7131 4.7757 7.6867 7.1594-0.0501 4.5539-7.1252 10.204 0.3709 12.073 8.1954 0.9727 1.7689-7.0828 2.2583-11.266 0.3261-2.7881 3.2818-6.076 8.8193-2.9289 4.4184-5.9026 9.6514-5.8437 10.721-5.5185-5.1937 12.205-9.3561 23.321-11.606 36.569-6.8519-1.4679-32.058-12.737-43.351-5.5913zm20.797-27.304c1.6982 0 3.0831 1.3849 3.0831 3.0837 0 1.6982-1.3849 3.083-3.0831 3.083-1.6988 0-3.0837-1.3848-3.0837-3.083 0-1.6988 1.3849-3.0837 3.0837-3.0837z" fill="url(#grad2)"/>
  <g fill="#002746" fill-rule="evenodd">
   <path d="m443.58 253.41-2.2154-6.104 19.008-15.28 1.5435 4.2526-3.5752 2.8691 3.4123 9.4016 4.5831-0.0918 1.5643 4.3101-16.848 0.4841zm14.685-4.6419-2.7194-7.4925-9.9566 7.8367z"/>
   <path d="m448.49 287.53-0.302-4.4522 9.4264-0.6393-0.1417-2.0879-9.9468-7.0371-0.3664-5.4037 11.899 8.5391 11.065-11.052 0.3768 5.5575-9.251 9.1405 0.1417 2.0879 9.8253-0.6662 0.302 4.4522z"/>
   <path d="m446.73 310.29c0.119-0.7496 0.2407-1.4834 0.3645-2.2012 0.124-0.7178 0.2725-1.4264 0.446-2.126 0.407-1.3897 0.972-2.4012 1.6956-3.0344 0.7234-0.6332 1.6329-0.9979 2.7282-1.0947 0.7585-0.0667 1.8064 6e-3 3.1436 0.2175l-0.6979 4.4075-0.9119-0.1444c-0.446-0.0706-0.7993-0.1007-1.0608-0.0902-0.2611 0.0107-0.5245 0.0988-0.7896 0.2649-0.2652 0.1653-0.472 0.4546-0.6205 0.8673-0.1482 0.4126-0.2835 1.004-0.4055 1.774l-0.284 1.7934c-0.273 1.7226-0.2483 2.8792 0.0736 3.4701 0.161 0.2958 0.3989 0.5309 0.714 0.7053 0.315 0.1745 0.8071 0.3146 1.4757 0.4206 0.6485 0.1029 1.159 0.1576 1.5316 0.1647 0.3729 7e-3 0.7236-0.2075 1.0524-0.6433 0.3286-0.4361 0.5948-1.0016 0.7983-1.6961 0.2035-0.6951 0.3856-1.5489 0.5461-2.5622 0.2343-1.4793 0.5614-2.8555 0.9811-4.1293 0.4198-1.273 0.9376-2.2139 1.5535-2.8229 0.6762-0.5988 1.6013-0.9302 2.7745-0.9936 0.6913-0.0359 1.6345 0.0405 2.8303 0.23 1.2968 0.2053 2.3984 0.5619 3.3046 1.0687 0.9065 0.5072 1.5507 1.1286 1.9327 1.8642 0.3821 0.7354 0.5627 1.6939 0.5418 2.8744-0.0206 1.1806-0.1434 2.4804-0.368 3.8988l-0.2604 1.6414c-0.2468 1.5601-0.4742 2.667-0.6816 3.3196-0.4141 1.3051-1.0109 2.2855-1.7898 2.9411s-1.7348 1.0183-2.8675 1.0884c-0.6913 0.0356-1.8171-0.0698-3.3774-0.3172l0.679-4.2854c0.2682 0.0423 0.4814 0.0761 0.6483 0.1026 0.6788 0.1075 1.218 0.1462 1.6123 0.1149 0.3945-0.0308 0.744-0.1727 1.0491-0.4256 0.3046-0.2529 0.553-0.6396 0.7496-1.1587 0.2012-0.5186 0.3609-1.1632 0.4827-1.9335 0.0675-0.4253 0.1172-0.7396 0.1492-0.9424 0.1478-0.932 0.2272-1.7294 0.2387-2.3922 0.0117-0.663-0.0723-1.2162-0.2511-1.6602-0.1788-0.4437-0.497-0.7639-0.9542-0.961-0.4567-0.1969-1.0298-0.3502-1.7187-0.4592-0.5472-0.0866-0.9934-0.121-1.3388-0.1032-0.3456 0.0181-0.6846 0.1567-1.0163 0.4154-0.3319 0.2591-0.5861 0.6498-0.7618 1.1725-0.1765 0.5226-0.34 1.26-0.4908 2.2126-0.2955 1.8645-0.5762 3.2427-0.8421 4.1352-0.4827 1.6062-1.1143 2.7732-1.8945 3.5015-0.5652 0.5542-1.3349 0.9205-2.3082 1.0985-0.9732 0.1783-1.9668 0.1872-2.9801 0.0268-1.3575-0.215-2.4479-0.5436-3.2709-0.9858-0.8232-0.4416-1.4248-0.9732-1.8044-1.5942-0.4375-0.7756-0.665-1.7671-0.6813-2.9745-0.0166-1.2073 0.094-2.561 0.3311-4.0605z"/>
   <path d="m439.36 341.17 1.379-4.2442 18.352 5.9627 3.3473-10.302 3.6001 1.1696-4.7264 14.547z"/>
   <path d="m447.07 378.94-20.187-11.19 7.6836-13.862 3.3109 1.8354-5.5353 9.9856 5.06 2.8051 5.2521-9.4747 3.1489 1.7458-5.2518 9.4746 5.3565 2.9689 5.5651-10.04 3.3107 1.8352z"/>
   <path d="m415.88 382.26c0.8135-1.0823 1.5727-1.9046 2.2769-2.4658 0.7045-0.561 1.4034-0.8765 2.0969-0.9452 0.5991-0.1143 1.2898-0.0253 2.0707 0.2668 0.7815 0.2922 1.5821 0.7466 2.4024 1.3632 1.3936 1.0477 2.2274 2.0724 2.5013 3.0741 0.106 0.4391 0.117 0.877 0.0324 1.314-0.0847 0.4371-0.2277 0.875-0.4294 1.3137l0.0985 0.0739c1.1337-1.201 2.3736-1.6548 3.7191-1.362 0.8162 0.1774 1.7904 0.6914 2.9218 1.5418 1.0003 0.7524 1.7545 1.4733 2.2626 2.1634 0.5082 0.6899 0.7883 1.4268 0.8407 2.2103 0.1008 1.3337-0.5943 2.9928-2.0863 4.977l-7.2122 9.5935-18.449-13.87zm2.4153 3.0861-3.6801 4.8951 4.6982 3.5322 3.6432-4.8458 0.3698-0.492c0.0863-0.1149 0.1726-0.2296 0.2589-0.3445 0.0784-0.1723 0.142-0.2912 0.1912-0.3568 0.3456-0.6642 0.3647-1.3042 0.0576-1.9202-0.2454-0.4925-0.7209-1.0039-1.4258-1.5342-0.2954-0.2219-0.5894-0.4109-0.8827-0.5672-0.2933-0.1561-0.6021-0.2407-0.9263-0.2534-0.3487 0.0199-0.6843 0.1592-1.0068 0.4173-0.3223 0.2583-0.755 0.7482-1.2972 1.4695zm3.7241 10.462 4.9935 3.754 3.9759-5.2886c0.4808-0.6394 0.8139-1.1847 0.9989-1.6358 0.1688-0.5663 0.1186-1.0793-0.1521-1.5391-0.2701-0.4596-0.6841-0.8995-1.2415-1.3188-0.4593-0.345-0.8754-0.6193-1.2486-0.8229-0.3732-0.2035-0.763-0.2912-1.1691-0.2632-0.6158 0.102-1.2934 0.645-2.033 1.6291z"/>
   <path d="m403.28 422.58c0.2873-0.2323 0.4944-0.4004 0.622-0.5035 0.7815-0.6327 1.3673-1.1801 1.759-1.6421 0.3913-0.4623 0.6368-0.958 0.7359-1.487 0.0874-0.4142 0.0474-0.7975-0.1195-1.1505-0.1673-0.3533-0.5025-0.8406-1.0063-1.4626l-10.032-12.388 3.4439-2.7888 10.4 12.843c1.5237 1.8816 2.1083 3.6788 1.7529 5.3919-0.2216 0.9977-0.9454 2.1251-2.1716 3.3821-0.7198 0.7414-1.8288 1.7187-3.3275 2.9324-1.0843 0.878-2.0598 1.5886-2.9266 2.1319-0.8668 0.5438-1.7832 0.9035-2.7501 1.0787-0.9926 0.1434-1.9643-0.0458-2.9159-0.569-0.9516-0.5229-1.8471-1.3026-2.6861-2.339l-10.323-12.748 3.4681-2.8082 10.588 13.074c0.61 0.7534 1.2674 1.0924 1.9783 1.0249 0.5155-0.0479 1.0305-0.2272 1.5445-0.5377 0.514-0.311 1.1694-0.7888 1.9666-1.4345z"/>
   <path d="m363.32 424.46 3.8157-2.3141 10.005 16.499 9.2628-5.6168 1.9628 3.2367-13.078 7.9307z"/>
   <path d="m331.55 450.69 7.7564-1.8359-6.6346-10.795zm-2.9155-15.122 6.319-1.4957 12.983 20.646-4.4027 1.042-2.437-3.8825-9.7326 2.3036-0.4382 4.563-4.4618 1.0564 1.4646-16.792z"/>
   <path d="m296.15 438.28 4.4626 0.0139-0.0292 9.4477 2.0927 6e-3 7.7227-9.4241 5.4163 0.0167-9.3595 11.265 10.242 11.818-5.5703-0.0171-8.4633-9.8741-2.0926-6e-3 -0.0303 9.8478-4.4623-0.0139z"/>
   <path d="m279.6 436.86 4.3947 0.7748-4.0078 22.73-4.3948-0.7748z"/>
   <path d="m248.31 428.63 6.9996 2.2592 3.5032 21.407 0.1171 0.0378 5.5757-18.476 4.2467 1.3707-7.0897 21.965-7.0584-2.2781-3.3861-21.369-0.1757-0.0568-2.7056 9.1838-2.8699 9.2924-4.2466-1.3707z"/>
   <path d="m221.39 415.66 4.0009 1.9765-4.184 8.4707 9.6575 4.7701 4.1841-8.4709 3.9731 1.9626-10.222 20.694-3.973-1.9623 4.361-8.8296-9.6573-4.7701-4.3611 8.8295-4.0011-1.9762z"/>
   <path d="m204.93 412.31 1.0048-1.0405c0.3989-0.4131 0.6541-0.7588 0.7654-1.0361 0.1113-0.2779 0.16-0.5943 0.1467-0.9496-0.0135-0.3551-0.2389-0.8082-0.6767-1.3591-0.4376-0.5512-0.9738-1.1332-1.6082-1.746l-0.4651-0.4488c-0.8854-0.8553-1.5774-1.4307-2.0759-1.7267-0.4987-0.296-1.0015-0.4396-1.5094-0.431-0.5076 9e-3 -1.0374 0.1962-1.5899 0.5612-0.5519 0.3652-1.149 0.8797-1.7903 1.544l-4.19 4.3389c-0.7412 0.7675-1.3056 1.4776-1.6933 2.1299-0.3874 0.6523-0.5336 1.2244-0.4381 1.716 0.0683 0.5792 0.2843 1.1016 0.6477 1.5667 0.3638 0.4651 0.959 1.097 1.7853 1.895l0.8635 0.8337c0.1767 0.1711 0.3614 0.3492 0.5532 0.5344 0.2498 0.1841 0.4266 0.3262 0.5298 0.4263 0.4404 0.2823 0.7735 0.4616 0.9997 0.5372 0.2262 0.0759 0.5064 0.1182 0.84 0.1269 0.4786-0.023 0.9432-0.2089 1.3943-0.5576s1.0397-0.8996 1.7664-1.652l3.1436 3.0353-1.0046 1.0405-0.3848 0.3986c-0.6984 0.7231-1.3923 1.2794-2.082 1.6686-0.8765 0.4941-1.7285 0.7264-2.556 0.6977-1.4824-0.1483-2.8955-0.8709-4.2383-2.1676-0.3839-0.3711-0.9585-0.8831-1.7247-1.5372-0.7656-0.6541-1.3036-1.1306-1.6138-1.4299-1.1803-1.1403-2.0514-2.2025-2.6128-3.1866-0.5611-0.984-0.8492-1.9111-0.8647-2.7817-0.0207-1.1892 0.4791-2.4893 1.4989-3.9001 0.6658-0.9256 1.9679-2.3922 3.906-4.3993 1.6961-1.7562 2.7727-2.8415 3.2297-3.2557 1.5573-1.4055 3.1026-2.2233 4.6364-2.4533 0.9412-0.1177 1.9389 0.0751 2.9921 0.5792 1.2582 0.5876 2.7432 1.7075 4.4551 3.3608 1.7562 1.6959 2.9026 2.96 3.4395 3.7924 0.537 0.8321 0.8342 1.6322 0.8908 2.4001 0.0621 1.0581-0.2884 2.1742-1.0517 3.3481-0.4236 0.646-1.149 1.5003-2.175 2.5629z"/>
   <path d="m162.04 389.76 17.88-14.595 10.022 12.278-2.9325 2.3936-7.2196-8.8449-4.4821 3.6587 6.8499 8.3918-2.7892 2.2768-6.8501-8.3918-4.7443 3.8727 7.2589 8.8925-2.9324 2.3937z"/>
   <path d="m148.09 366.4 17.029-9.0733-3.1694-5.9481 3.3405-1.78 8.4514 15.862-3.3408 1.7801-3.198-6.0028-17.029 9.0738z"/>
   <path d="m160.28 335.04 1.23 4.2893-22.187 6.3621-1.2299-4.2895z"/>
   <path d="m155.07 310.73 0.544 4.4291-19.152 2.3517 1.3199 10.752-3.7566 0.4613-1.8643-15.181z"/>
   <path d="m153.72 287.35c-0.0677 1.9474-0.2348 3.492-0.5002 4.6321-0.4343 1.853-1.1655 3.0903-2.1928 3.7111-0.7335 0.4261-1.4317 0.72-2.0942 0.8815-1.1594 0.2881-2.4057 0.4086-3.7386 0.3622l-7.4431-0.2601c-1.394-0.0486-2.557-0.2534-3.4887-0.6143-0.5876-0.2259-1.2114-0.5863-1.8713-1.0818-1.0194-0.7952-1.6704-2.1418-1.9529-4.0404-0.1666-1.1143-0.2111-2.7788-0.1337-4.993 0.0787-2.2557 0.3054-3.8953 0.6798-4.9189 0.3744-1.0237 0.9001-1.8212 1.5772-2.393 0.6576-0.6131 1.5651-1.0331 2.723-1.2598 1.1574-0.2264 2.4333-0.3153 3.8275-0.2667l6.3051 0.2201c1.4149 0.0494 2.4994 0.149 3.2536 0.2985 1.2027 0.2473 2.2043 0.662 3.0051 1.2445 0.9796 0.7527 1.6128 2.027 1.8991 3.8229 0.1683 1.0527 0.217 2.6047 0.1451 4.6551zm-3.7859-0.0398c0.0491-1.405-0.0156-2.5002-0.1934-3.2811-0.178-0.7863-0.5295-1.3018-1.0545-1.556-0.5249-0.2497-1.0522-0.432-1.5822-0.5428-0.53-0.1111-1.0512-0.1753-1.5639-0.1933l-0.7071-0.0248-5.4747-0.191c-1.1072-0.0387-1.9551-0.012-2.5432 0.0805s-1.0502 0.2354-1.3851 0.4289c-0.4409 0.2718-0.7738 0.6964-0.9992 1.2736-0.2257 0.5774-0.3668 1.6861-0.4241 3.3265-0.0846 2.4194 0.2814 3.9922 1.1029 4.7192 0.7455 0.5392 1.9054 0.8364 3.4945 0.8917l6.1408 0.2147 0.8357 0.0291c0.8405 0.0295 1.5043-0.0145 1.9806-0.1312 0.4814-0.1167 0.8617-0.2827 1.1467-0.5092 0.2853-0.2256 0.5331-0.5611 0.733-1.001 0.2002-0.4444 0.3393-0.896 0.417-1.3606z"/>
   <path d="m142.45 251.43-7.2564-1.6755 0.9967-4.3178 22.49 5.192-2.2707 9.8355c-0.4155 1.799-0.8492 3.1306-1.3016 3.9951-0.7595 1.4671-1.7886 2.3665-3.0863 2.6986-0.7937 0.1536-1.6077 0.1918-2.4429 0.1152-0.8349-0.0775-1.7223-0.2242-2.662-0.4409-1.6393-0.3788-2.8608-0.7871-3.6649-1.2254-0.8042-0.4384-1.4333-0.9521-1.8867-1.5408-0.4536-0.5891-0.7081-1.4482-0.7633-2.5766-0.0553-1.1289 0.0555-2.2931 0.3324-3.4925zm3.6884 0.8515-1.2598 5.4573c-0.1663 0.7196-0.2656 1.3548-0.298 1.9052-0.0323 0.5507 0.0336 0.9715 0.1984 1.2621 0.2476 0.4784 0.5696 0.8159 0.9664 1.0127 0.3966 0.1969 1.0547 0.4015 1.9742 0.6136 0.8197 0.1893 1.4465 0.3024 1.8803 0.3393 0.4335 0.0367 0.8607-0.0117 1.2812-0.1462 0.4208-0.1347 0.7758-0.4424 1.0657-0.9228 0.2898-0.4804 0.5433-1.1903 0.7603-2.1299l1.2878-5.5776z"/>
  </g>
  <path d="m280.48 198.49c15.604-3.6788 32.088-3.7021 48.425 1.1786" fill="none"/>
  <path d="m282.52 204.85c11.354-4.4178 29.779-3.2452 44.895 1.1464" fill="none"/>
  <path d="m300.93 108.59c44.338 0 85.408 16.436 117.08 42.901l0.64 0.621c-27.826-11.421-77.827-22.738-117.06 8.1084-38.722-27.844-94.69-23.607-109.53-14.869l-0.067-0.1462c28.807-22.242 64.732-36.615 108.94-36.615z" fill="#fff" fill-rule="evenodd"/>
 </g>
</svg>
