<?xml version="1.0" encoding="UTF-8"?>
<svg xmlns="http://www.w3.org/2000/svg" xmlns:xlink="http://www.w3.org/1999/xlink" width="351.328003pt" height="351.328003pt" viewBox="0 0 351.328003 351.328003" version="1.1">
<defs>
<clipPath id="clip1">
  <path d="M 161.304688 108.007812 C 161.304688 108.007812 161.214844 107.824219 161.214844 107.824219 C 161.15625 107.625 161.09375 107.429688 161.03125 107.234375 L 161.03125 107.230469 C 160.96875 107.035156 160.90625 106.839844 160.84375 106.644531 C 160.78125 106.449219 160.71875 106.253906 160.65625 106.058594 C 160.59375 105.863281 160.53125 105.671875 160.46875 105.476562 C 160.40625 105.285156 160.34375 105.089844 160.28125 104.898438 C 160.21875 104.707031 160.15625 104.511719 160.089844 104.320312 C 160.027344 104.128906 159.964844 103.941406 159.902344 103.75 C 159.835938 103.558594 159.773438 103.367188 159.710938 103.179688 C 159.710938 103.179688 159.710938 103.179688 159.710938 103.179688 C 157.238281 95.777344 153.546875 89.398438 150.613281 82.1875 C 152.835938 81.511719 155.828125 82.519531 156.601562 83.234375 C 158.15625 85.160156 159.171875 85.757812 159.46875 87.8125 C 161.191406 85.640625 164.710938 86.082031 165.566406 89.390625 C 166.492188 92.96875 161.664062 96.894531 167.382812 98.382812 C 171.5 97.914062 169.914062 94.164062 169.320312 93.351562 C 168.035156 91.324219 167.601562 88.042969 169.066406 85.894531 C 169.972656 84.566406 171.035156 84.015625 171.992188 83.761719 C 172.949219 83.503906 173.789062 83.542969 174.292969 83.398438 C 174.332031 82.957031 173.738281 81.386719 174.613281 80.441406 C 175.722656 79.25 177.699219 77.59375 178.003906 76.140625 C 178.472656 78.398438 179.960938 78.738281 181.300781 81.125 C 181.707031 81.847656 181.269531 82.992188 181.386719 83.609375 C 186.800781 84.570312 187.558594 87.429688 187.535156 89.335938 C 187.496094 92.980469 181.835938 97.5 187.832031 98.996094 C 194.390625 99.773438 189.246094 93.328125 189.640625 89.984375 C 189.898438 87.753906 192.265625 85.121094 196.695312 87.640625 C 200.230469 82.917969 204.414062 82.964844 205.269531 83.226562 C 201.117188 92.988281 197.785156 101.882812 195.988281 112.480469 C 190.503906 111.304688 170.339844 102.289062 161.304688 108.007812 Z M 177.941406 86.164062 C 179.300781 86.164062 180.410156 87.273438 180.410156 88.628906 C 180.410156 89.988281 179.300781 91.097656 177.941406 91.097656 C 176.582031 91.097656 175.476562 89.988281 175.476562 88.628906 C 175.476562 87.273438 176.582031 86.164062 177.941406 86.164062 Z M 177.941406 86.164062 "/>
</clipPath>
<linearGradient id="linear0" gradientUnits="userSpaceOnUse" x1="219.851562" y1="203.964844" x2="219.851562" y2="259.671875" gradientTransform="matrix(0.981118,0,0,0.652303,-65.078283,-56.904698)">
<stop offset="0" style="stop-color:rgb(59%,59%,59%);stop-opacity:1;"/>
<stop offset="0.00390625" style="stop-color:rgb(59%,59%,59%);stop-opacity:1;"/>
<stop offset="0.0078125" style="stop-color:rgb(60%,60%,60%);stop-opacity:1;"/>
<stop offset="0.0117187" style="stop-color:rgb(60%,60%,60%);stop-opacity:1;"/>
<stop offset="0.015625" style="stop-color:rgb(61%,61%,61%);stop-opacity:1;"/>
<stop offset="0.0195312" style="stop-color:rgb(61%,61%,61%);stop-opacity:1;"/>
<stop offset="0.0234375" style="stop-color:rgb(62%,62%,62%);stop-opacity:1;"/>
<stop offset="0.0273437" style="stop-color:rgb(62%,62%,62%);stop-opacity:1;"/>
<stop offset="0.03125" style="stop-color:rgb(63%,63%,63%);stop-opacity:1;"/>
<stop offset="0.0351562" style="stop-color:rgb(64%,64%,64%);stop-opacity:1;"/>
<stop offset="0.0390625" style="stop-color:rgb(64%,64%,64%);stop-opacity:1;"/>
<stop offset="0.0429688" style="stop-color:rgb(65%,65%,65%);stop-opacity:1;"/>
<stop offset="0.046875" style="stop-color:rgb(65%,65%,65%);stop-opacity:1;"/>
<stop offset="0.0507812" style="stop-color:rgb(66%,66%,66%);stop-opacity:1;"/>
<stop offset="0.0546875" style="stop-color:rgb(66%,66%,66%);stop-opacity:1;"/>
<stop offset="0.0585937" style="stop-color:rgb(67%,67%,67%);stop-opacity:1;"/>
<stop offset="0.0625" style="stop-color:rgb(68%,68%,68%);stop-opacity:1;"/>
<stop offset="0.0664062" style="stop-color:rgb(68%,68%,68%);stop-opacity:1;"/>
<stop offset="0.0703125" style="stop-color:rgb(69%,69%,69%);stop-opacity:1;"/>
<stop offset="0.0742188" style="stop-color:rgb(69%,69%,69%);stop-opacity:1;"/>
<stop offset="0.078125" style="stop-color:rgb(70%,70%,70%);stop-opacity:1;"/>
<stop offset="0.0820312" style="stop-color:rgb(71%,71%,71%);stop-opacity:1;"/>
<stop offset="0.0859375" style="stop-color:rgb(71%,71%,71%);stop-opacity:1;"/>
<stop offset="0.0898438" style="stop-color:rgb(72%,72%,72%);stop-opacity:1;"/>
<stop offset="0.09375" style="stop-color:rgb(72%,72%,72%);stop-opacity:1;"/>
<stop offset="0.0976562" style="stop-color:rgb(73%,73%,73%);stop-opacity:1;"/>
<stop offset="0.101562" style="stop-color:rgb(74%,74%,74%);stop-opacity:1;"/>
<stop offset="0.105469" style="stop-color:rgb(74%,74%,74%);stop-opacity:1;"/>
<stop offset="0.109375" style="stop-color:rgb(75%,75%,75%);stop-opacity:1;"/>
<stop offset="0.113281" style="stop-color:rgb(75%,75%,75%);stop-opacity:1;"/>
<stop offset="0.117187" style="stop-color:rgb(76%,76%,76%);stop-opacity:1;"/>
<stop offset="0.121094" style="stop-color:rgb(77%,77%,77%);stop-opacity:1;"/>
<stop offset="0.125" style="stop-color:rgb(77%,77%,77%);stop-opacity:1;"/>
<stop offset="0.128906" style="stop-color:rgb(78%,78%,78%);stop-opacity:1;"/>
<stop offset="0.132812" style="stop-color:rgb(78%,78%,78%);stop-opacity:1;"/>
<stop offset="0.136719" style="stop-color:rgb(79%,79%,79%);stop-opacity:1;"/>
<stop offset="0.140625" style="stop-color:rgb(79%,79%,79%);stop-opacity:1;"/>
<stop offset="0.144531" style="stop-color:rgb(80%,80%,80%);stop-opacity:1;"/>
<stop offset="0.148438" style="stop-color:rgb(81%,81%,81%);stop-opacity:1;"/>
<stop offset="0.152344" style="stop-color:rgb(81%,81%,81%);stop-opacity:1;"/>
<stop offset="0.15625" style="stop-color:rgb(82%,82%,82%);stop-opacity:1;"/>
<stop offset="0.160156" style="stop-color:rgb(82%,82%,82%);stop-opacity:1;"/>
<stop offset="0.164062" style="stop-color:rgb(83%,83%,83%);stop-opacity:1;"/>
<stop offset="0.167969" style="stop-color:rgb(84%,84%,84%);stop-opacity:1;"/>
<stop offset="0.171875" style="stop-color:rgb(84%,84%,84%);stop-opacity:1;"/>
<stop offset="0.175781" style="stop-color:rgb(85%,85%,85%);stop-opacity:1;"/>
<stop offset="0.179688" style="stop-color:rgb(85%,85%,85%);stop-opacity:1;"/>
<stop offset="0.183594" style="stop-color:rgb(86%,86%,86%);stop-opacity:1;"/>
<stop offset="0.1875" style="stop-color:rgb(87%,87%,87%);stop-opacity:1;"/>
<stop offset="0.191406" style="stop-color:rgb(87%,87%,87%);stop-opacity:1;"/>
<stop offset="0.195312" style="stop-color:rgb(88%,88%,88%);stop-opacity:1;"/>
<stop offset="0.199219" style="stop-color:rgb(88%,88%,88%);stop-opacity:1;"/>
<stop offset="0.203125" style="stop-color:rgb(89%,89%,89%);stop-opacity:1;"/>
<stop offset="0.207031" style="stop-color:rgb(90%,90%,90%);stop-opacity:1;"/>
<stop offset="0.210937" style="stop-color:rgb(90%,90%,90%);stop-opacity:1;"/>
<stop offset="0.214844" style="stop-color:rgb(91%,91%,91%);stop-opacity:1;"/>
<stop offset="0.21875" style="stop-color:rgb(91%,91%,91%);stop-opacity:1;"/>
<stop offset="0.222656" style="stop-color:rgb(92%,92%,92%);stop-opacity:1;"/>
<stop offset="0.226562" style="stop-color:rgb(93%,93%,93%);stop-opacity:1;"/>
<stop offset="0.230469" style="stop-color:rgb(93%,93%,93%);stop-opacity:1;"/>
<stop offset="0.234375" style="stop-color:rgb(94%,94%,94%);stop-opacity:1;"/>
<stop offset="0.238281" style="stop-color:rgb(94%,94%,94%);stop-opacity:1;"/>
<stop offset="0.242187" style="stop-color:rgb(95%,95%,95%);stop-opacity:1;"/>
<stop offset="0.246094" style="stop-color:rgb(95%,95%,95%);stop-opacity:1;"/>
<stop offset="0.25" style="stop-color:rgb(96%,96%,96%);stop-opacity:1;"/>
<stop offset="0.253906" style="stop-color:rgb(97%,97%,97%);stop-opacity:1;"/>
<stop offset="0.257812" style="stop-color:rgb(97%,97%,97%);stop-opacity:1;"/>
<stop offset="0.261719" style="stop-color:rgb(96%,96%,96%);stop-opacity:1;"/>
<stop offset="0.265625" style="stop-color:rgb(95%,95%,95%);stop-opacity:1;"/>
<stop offset="0.269531" style="stop-color:rgb(94%,94%,94%);stop-opacity:1;"/>
<stop offset="0.273437" style="stop-color:rgb(92%,92%,92%);stop-opacity:1;"/>
<stop offset="0.277344" style="stop-color:rgb(91%,91%,91%);stop-opacity:1;"/>
<stop offset="0.28125" style="stop-color:rgb(90%,90%,90%);stop-opacity:1;"/>
<stop offset="0.285156" style="stop-color:rgb(88%,88%,88%);stop-opacity:1;"/>
<stop offset="0.289062" style="stop-color:rgb(87%,87%,87%);stop-opacity:1;"/>
<stop offset="0.292969" style="stop-color:rgb(85%,85%,85%);stop-opacity:1;"/>
<stop offset="0.296875" style="stop-color:rgb(84%,84%,84%);stop-opacity:1;"/>
<stop offset="0.300781" style="stop-color:rgb(82%,82%,82%);stop-opacity:1;"/>
<stop offset="0.304687" style="stop-color:rgb(81%,81%,81%);stop-opacity:1;"/>
<stop offset="0.308594" style="stop-color:rgb(79%,79%,79%);stop-opacity:1;"/>
<stop offset="0.3125" style="stop-color:rgb(78%,78%,78%);stop-opacity:1;"/>
<stop offset="0.316406" style="stop-color:rgb(76%,76%,76%);stop-opacity:1;"/>
<stop offset="0.320312" style="stop-color:rgb(75%,75%,75%);stop-opacity:1;"/>
<stop offset="0.324219" style="stop-color:rgb(73%,73%,73%);stop-opacity:1;"/>
<stop offset="0.328125" style="stop-color:rgb(72%,72%,72%);stop-opacity:1;"/>
<stop offset="0.332031" style="stop-color:rgb(70%,70%,70%);stop-opacity:1;"/>
<stop offset="0.335937" style="stop-color:rgb(69%,69%,69%);stop-opacity:1;"/>
<stop offset="0.339844" style="stop-color:rgb(67%,67%,67%);stop-opacity:1;"/>
<stop offset="0.34375" style="stop-color:rgb(66%,66%,66%);stop-opacity:1;"/>
<stop offset="0.347656" style="stop-color:rgb(64%,64%,64%);stop-opacity:1;"/>
<stop offset="0.351562" style="stop-color:rgb(63%,63%,63%);stop-opacity:1;"/>
<stop offset="0.355469" style="stop-color:rgb(61%,61%,61%);stop-opacity:1;"/>
<stop offset="0.359375" style="stop-color:rgb(60%,60%,60%);stop-opacity:1;"/>
<stop offset="0.363281" style="stop-color:rgb(60%,60%,60%);stop-opacity:1;"/>
<stop offset="0.367187" style="stop-color:rgb(60%,60%,60%);stop-opacity:1;"/>
<stop offset="0.375" style="stop-color:rgb(60%,60%,60%);stop-opacity:1;"/>
<stop offset="0.5" style="stop-color:rgb(60%,60%,60%);stop-opacity:1;"/>
<stop offset="1" style="stop-color:rgb(60%,60%,60%);stop-opacity:1;"/>
</linearGradient>
</defs>
<g id="surface1">
<path style=" stroke:none;fill-rule:evenodd;fill:rgb(28%,28%,28%);fill-opacity:1;" d="M 175.664062 0 C 198.660156 0 221.644531 4.570312 242.890625 13.371094 C 264.132812 22.171875 283.617188 35.191406 299.878906 51.449219 C 316.136719 67.710938 329.15625 87.195312 337.957031 108.441406 C 346.757812 129.683594 351.328125 152.667969 351.328125 175.664062 C 351.328125 210.15625 340.886719 244.578125 321.722656 273.257812 C 302.5625 301.9375 274.753906 324.757812 242.890625 337.953125 C 211.023438 351.152344 175.226562 354.675781 141.398438 347.949219 C 107.570312 341.21875 75.847656 324.257812 51.457031 299.871094 C 27.070312 275.480469 10.113281 243.757812 3.382812 209.929688 C -3.347656 176.101562 0.175781 140.304688 13.375 108.4375 C 26.574219 76.574219 49.394531 48.765625 78.070312 29.605469 C 106.75 10.441406 141.171875 0 175.664062 0 Z M 175.664062 0 "/>
<path style=" stroke:none;fill-rule:nonzero;fill:rgb(100%,100%,100%);fill-opacity:1;" d="M 18.035156 103.824219 L 30.527344 108.667969 C 55.949219 53.902344 111.488281 15.761719 175.664062 15.761719 C 238.378906 15.761719 292.847656 52.195312 319.023438 104.972656 L 331.382812 99.804688 C 303.167969 42.210938 243.921875 2.390625 175.664062 2.390625 C 105.832031 2.390625 45.425781 44.070312 18.039062 103.820312 Z M 18.035156 103.824219 "/>
<path style=" stroke:none;fill-rule:nonzero;fill:rgb(28%,28%,28%);fill-opacity:1;" d="M 30.53125 108.664062 L 43.914062 113.851562 C 67.234375 64.433594 117.5625 30.085938 175.660156 30.085938 C 232.4375 30.085938 281.796875 62.882812 305.769531 110.5 L 319.015625 104.964844 C 292.84375 52.191406 238.375 15.757812 175.65625 15.757812 C 111.488281 15.757812 55.945312 53.898438 30.519531 108.660156 Z M 30.53125 108.664062 "/>
<path style=" stroke:none;fill-rule:nonzero;fill:rgb(100%,100%,100%);fill-opacity:1;" d="M 305.777344 110.503906 C 315.664062 130.125 321.238281 152.265625 321.238281 175.664062 C 321.238281 255.839844 255.84375 321.238281 175.660156 321.238281 C 95.480469 321.238281 30.085938 255.84375 30.085938 175.664062 C 30.085938 153.566406 35.0625 132.597656 43.9375 113.804688 C 43.929688 113.820312 43.921875 113.835938 43.914062 113.855469 L 30.527344 108.664062 C 21.058594 129.0625 15.757812 151.761719 15.757812 175.664062 C 15.757812 263.734375 87.589844 335.566406 175.660156 335.566406 C 263.734375 335.566406 335.566406 263.734375 335.566406 175.664062 C 335.566406 150.386719 329.558594 126.269531 319.035156 104.984375 L 318.511719 105.191406 L 318.503906 105.183594 Z M 305.777344 110.503906 "/>
<path style=" stroke:none;fill-rule:nonzero;fill:rgb(28%,28%,28%);fill-opacity:1;" d="M 331.402344 99.839844 C 342.625 122.761719 348.945312 148.496094 348.945312 175.660156 C 348.945312 271.101562 271.105469 348.941406 175.664062 348.941406 C 80.222656 348.941406 2.382812 271.101562 2.382812 175.660156 C 2.382812 150.058594 7.992188 125.726562 18.035156 103.820312 L 30.527344 108.664062 C 30.546875 108.613281 30.570312 108.566406 30.59375 108.519531 C 21.082031 128.953125 15.757812 151.707031 15.757812 175.664062 C 15.757812 263.734375 87.589844 335.566406 175.660156 335.566406 C 263.734375 335.566406 335.5625 263.734375 335.5625 175.664062 C 335.5625 150.308594 329.601562 126.300781 319.019531 104.96875 L 330.527344 100.160156 L 330.535156 100.171875 Z M 331.402344 99.839844 "/>
<path style=" stroke:none;fill-rule:evenodd;fill:rgb(68%,68%,68%);fill-opacity:1;" d="M 269.863281 64.742188 C 301.902344 91.683594 322.324219 130.703125 322.324219 175.671875 C 322.324219 256.445312 256.445312 322.328125 175.667969 322.328125 C 94.894531 322.328125 29.011719 256.445312 29.011719 175.671875 C 29.011719 158.660156 32.953125 141.0625 38.484375 124.960938 C 47.792969 97.859375 66.714844 74.410156 88.492188 59.617188 L 87.921875 111.546875 C 82.410156 116.824219 75.300781 133.734375 72.199219 142.90625 L 81.863281 146.28125 C 80.128906 152.417969 79.078125 160.6875 78.554688 167.234375 L 69.726562 166.417969 C 68.929688 178.070312 68.269531 178.253906 70.449219 191.195312 L 79.632812 189.910156 C 82.277344 198.589844 84.4375 205.761719 85.917969 210.246094 L 77.542969 213.304688 C 80.671875 221.320312 83.738281 227.332031 88.585938 234.300781 L 95.742188 229.363281 C 99.160156 234.167969 104.824219 240.757812 109.023438 244.878906 L 103.082031 250.941406 C 109.226562 256.839844 115.496094 261.890625 122.878906 266.234375 L 127.976562 258.910156 C 133.296875 261.960938 141.589844 265.652344 147.460938 267.6875 L 144.007812 275.464844 C 151.984375 278.128906 160.503906 279.890625 169.171875 280.632812 L 170.234375 271.738281 C 180.582031 272.507812 181.304688 272.53125 193.949219 270.667969 L 195.21875 279.414062 C 203.78125 278.058594 211.734375 276.398438 219.519531 273.15625 L 215.863281 264.269531 C 221.527344 261.835938 228.464844 257.910156 233.53125 254.507812 L 238.976562 261.570312 C 246.027344 256.730469 250.242188 253.46875 255.964844 247.144531 L 249.390625 240.074219 C 252.894531 236.117188 259.460938 228.652344 262.308594 224.175781 L 270.09375 228.277344 C 274.5625 221.074219 276.667969 214.300781 279.371094 206.117188 L 271.582031 202.714844 C 273.28125 197.375 275.09375 189.375 275.867188 183.691406 L 285.429688 183.769531 C 285.984375 179.339844 285.710938 179.875 285.710938 175.296875 C 285.710938 171.230469 284.917969 163.855469 284.480469 159.90625 L 275.480469 161.132812 C 274.800781 155.59375 273.289062 148.140625 271.734375 142.917969 L 280.125 139.503906 C 277.574219 131.269531 274.65625 125.75 270.386719 118.410156 C 270.296875 118.261719 269.898438 117.597656 269.867188 117.542969 Z M 269.863281 64.742188 "/>
<path style=" stroke:none;fill-rule:evenodd;fill:rgb(100%,100%,100%);fill-opacity:1;" d="M 174.519531 113.847656 C 176.285156 113.847656 178.757812 114.535156 178.757812 115.417969 C 178.757812 116.296875 177.0625 116.917969 175.296875 116.644531 C 173.535156 116.371094 171.933594 115.851562 171.867188 115.378906 C 171.796875 114.90625 172.757812 113.847656 174.519531 113.847656 Z M 269.855469 117.527344 C 274.191406 124.808594 277.5625 131.261719 280.117188 139.496094 L 271.726562 142.90625 C 273.28125 148.128906 274.792969 155.585938 275.472656 161.125 L 284.472656 159.894531 C 284.910156 163.847656 285.703125 171.222656 285.703125 175.289062 C 285.703125 179.867188 285.972656 179.332031 285.421875 183.761719 L 275.855469 183.683594 C 275.082031 189.363281 273.269531 197.367188 271.574219 202.707031 L 279.363281 206.109375 C 276.660156 214.292969 274.554688 221.066406 270.085938 228.269531 L 262.300781 224.164062 C 259.453125 228.644531 252.886719 236.109375 249.382812 240.066406 L 255.957031 247.136719 C 250.230469 253.460938 246.015625 256.71875 238.964844 261.5625 L 233.519531 254.5 C 228.453125 257.898438 221.515625 261.828125 215.855469 264.261719 L 219.511719 273.148438 C 211.726562 276.390625 203.769531 278.046875 195.207031 279.40625 L 193.941406 270.660156 C 181.296875 272.523438 180.574219 272.496094 170.226562 271.726562 L 169.160156 280.621094 C 160.496094 279.882812 151.972656 278.121094 144 275.453125 L 147.453125 267.679688 C 141.582031 265.644531 133.285156 261.953125 127.96875 258.902344 L 122.871094 266.222656 C 115.484375 261.878906 109.214844 256.832031 103.074219 250.929688 L 109.011719 244.871094 C 104.816406 240.75 99.152344 234.15625 95.730469 229.355469 L 88.578125 234.292969 C 83.730469 227.324219 80.660156 221.308594 77.535156 213.296875 L 85.90625 210.238281 C 84.425781 205.753906 82.265625 198.578125 79.621094 189.898438 L 70.441406 191.1875 C 68.785156 181.132812 68.921875 176.222656 69.714844 166.40625 L 78.546875 167.222656 C 79.066406 160.675781 80.117188 152.40625 81.855469 146.273438 L 72.1875 142.894531 C 75.050781 134.621094 81.035156 118.394531 87.796875 111.601562 C 113.800781 119.355469 134.402344 135.472656 134.402344 171.410156 C 134.398438 182.230469 120.339844 191.386719 109.222656 182.972656 C 114.65625 200.535156 124.203125 204.089844 129.621094 206.601562 C 129.097656 196.046875 137.007812 191.054688 145.449219 193.746094 C 140.917969 190.488281 140.261719 184.09375 140.957031 179.851562 C 145.671875 181.328125 162.199219 176.730469 164.691406 172.488281 C 160.847656 171.40625 158.183594 165.542969 157.832031 160.554688 C 183.402344 163.34375 174.9375 140.148438 169.191406 138.074219 C 164.191406 136.015625 160.125 137.472656 152.882812 136.25 C 145.996094 135.085938 146.210938 131.359375 145.414062 128.90625 C 155.164062 134.449219 152.632812 126.8125 160.425781 126.839844 C 152.78125 118.8125 147.582031 123.101562 144.417969 124.460938 C 146.34375 116.609375 154.570312 112.945312 158.085938 113.746094 C 159.15625 108.523438 162.90625 105.375 170.082031 105.546875 C 184.546875 105.890625 195.148438 116.554688 208.195312 111.839844 C 206.886719 118.488281 202.714844 123.011719 199.78125 125.484375 C 205.65625 127.789062 204.242188 151.738281 202.082031 159.617188 C 201.65625 164.34375 202.464844 168.410156 205.917969 173.199219 C 205.292969 173.3125 201.195312 176.222656 196.460938 173.511719 C 197.273438 178.3125 198.375 184.054688 207.621094 187.667969 C 206.984375 190.039062 202.390625 195.867188 198.539062 196.34375 C 210.257812 200.316406 207.335938 210.238281 207.894531 213.1875 C 229.242188 208.414062 234.144531 192.90625 234.890625 189.429688 C 222.351562 191.601562 213.335938 185.195312 212.871094 173.113281 C 211.96875 149.613281 244.101562 126.121094 269.855469 117.527344 Z M 269.855469 117.527344 "/>
<g clip-path="url(#clip1)" clip-rule="nonzero">
<path style=" stroke:none;fill-rule:nonzero;fill:url(#linear0);" d="M 150.613281 76.140625 L 150.613281 112.480469 L 205.269531 112.480469 L 205.269531 76.140625 Z M 150.613281 76.140625 "/>
</g>
<path style=" stroke:none;fill-rule:nonzero;fill:rgb(12%,12%,12%);fill-opacity:1;" d="M 289.785156 145.824219 L 288.011719 140.941406 L 303.21875 128.714844 L 304.453125 132.117188 L 301.59375 134.414062 L 304.324219 141.933594 L 307.988281 141.859375 L 309.242188 145.308594 L 295.761719 145.695312 Z M 301.53125 142.109375 L 299.359375 136.117188 L 291.390625 142.386719 Z M 301.53125 142.109375 "/>
<path style=" stroke:none;fill-rule:nonzero;fill:rgb(12%,12%,12%);fill-opacity:1;" d="M 293.714844 173.117188 L 293.472656 169.558594 L 301.011719 169.046875 L 300.898438 167.375 L 292.941406 161.746094 L 292.648438 157.421875 L 302.167969 164.253906 L 311.019531 155.414062 L 311.320312 159.859375 L 303.921875 167.171875 L 304.035156 168.839844 L 311.894531 168.308594 L 312.136719 171.871094 Z M 293.714844 173.117188 "/>
<path style=" stroke:none;fill-rule:nonzero;fill:rgb(12%,12%,12%);fill-opacity:1;" d="M 292.304688 191.328125 C 292.398438 190.726562 292.496094 190.140625 292.597656 189.566406 C 292.695312 188.992188 292.816406 188.425781 292.953125 187.863281 C 293.277344 186.753906 293.730469 185.945312 294.308594 185.4375 C 294.890625 184.929688 295.617188 184.640625 296.492188 184.5625 C 297.097656 184.507812 297.9375 184.566406 299.007812 184.734375 L 298.449219 188.261719 L 297.71875 188.144531 C 297.363281 188.089844 297.082031 188.066406 296.871094 188.074219 C 296.660156 188.082031 296.453125 188.152344 296.238281 188.285156 C 296.027344 188.417969 295.863281 188.648438 295.742188 188.980469 C 295.625 189.308594 295.515625 189.78125 295.417969 190.398438 L 295.191406 191.832031 C 294.972656 193.210938 294.992188 194.136719 295.25 194.609375 C 295.378906 194.847656 295.570312 195.035156 295.820312 195.175781 C 296.074219 195.3125 296.46875 195.425781 297 195.511719 C 297.519531 195.59375 297.929688 195.636719 298.226562 195.640625 C 298.527344 195.648438 298.804688 195.476562 299.070312 195.128906 C 299.332031 194.777344 299.542969 194.328125 299.707031 193.769531 C 299.871094 193.214844 300.015625 192.53125 300.144531 191.722656 C 300.332031 190.539062 300.59375 189.4375 300.929688 188.417969 C 301.265625 187.398438 301.679688 186.648438 302.171875 186.160156 C 302.714844 185.679688 303.453125 185.414062 304.390625 185.363281 C 304.945312 185.335938 305.699219 185.398438 306.65625 185.546875 C 307.695312 185.710938 308.574219 185.996094 309.300781 186.402344 C 310.023438 186.808594 310.539062 187.304688 310.847656 187.894531 C 311.152344 188.484375 311.296875 189.25 311.28125 190.195312 C 311.261719 191.140625 311.164062 192.179688 310.984375 193.3125 L 310.777344 194.625 C 310.578125 195.875 310.398438 196.761719 310.230469 197.28125 C 309.898438 198.328125 309.421875 199.109375 308.800781 199.636719 C 308.175781 200.160156 307.410156 200.449219 306.503906 200.503906 C 305.953125 200.535156 305.050781 200.449219 303.804688 200.253906 L 304.347656 196.824219 C 304.5625 196.859375 304.730469 196.882812 304.867188 196.90625 C 305.410156 196.992188 305.839844 197.023438 306.15625 196.996094 C 306.472656 196.972656 306.75 196.859375 306.996094 196.65625 C 307.238281 196.453125 307.4375 196.144531 307.59375 195.730469 C 307.753906 195.316406 307.882812 194.800781 307.980469 194.183594 C 308.035156 193.84375 308.074219 193.589844 308.101562 193.429688 C 308.21875 192.683594 308.28125 192.046875 308.289062 191.515625 C 308.300781 190.984375 308.234375 190.542969 308.089844 190.1875 C 307.945312 189.832031 307.691406 189.578125 307.328125 189.417969 C 306.960938 189.261719 306.503906 189.136719 305.953125 189.050781 C 305.515625 188.980469 305.15625 188.953125 304.878906 188.96875 C 304.605469 188.984375 304.332031 189.09375 304.066406 189.300781 C 303.800781 189.507812 303.597656 189.820312 303.457031 190.238281 C 303.316406 190.65625 303.1875 191.246094 303.066406 192.007812 C 302.828125 193.5 302.605469 194.601562 302.390625 195.316406 C 302.003906 196.601562 301.5 197.535156 300.875 198.117188 C 300.425781 198.5625 299.808594 198.855469 299.03125 198.996094 C 298.25 199.140625 297.457031 199.148438 296.644531 199.019531 C 295.558594 198.847656 294.6875 198.582031 294.027344 198.230469 C 293.371094 197.875 292.890625 197.453125 292.585938 196.953125 C 292.234375 196.335938 292.054688 195.542969 292.039062 194.574219 C 292.027344 193.609375 292.117188 192.527344 292.304688 191.328125 Z M 292.304688 191.328125 "/>
<path style=" stroke:none;fill-rule:nonzero;fill:rgb(12%,12%,12%);fill-opacity:1;" d="M 286.410156 216.03125 L 287.511719 212.636719 L 302.195312 217.40625 L 304.871094 209.164062 L 307.75 210.101562 L 303.96875 221.738281 Z M 286.410156 216.03125 "/>
<path style=" stroke:none;fill-rule:nonzero;fill:rgb(12%,12%,12%);fill-opacity:1;" d="M 292.578125 246.246094 L 276.425781 237.292969 L 282.574219 226.207031 L 285.222656 227.671875 L 280.792969 235.660156 L 284.84375 237.90625 L 289.042969 230.328125 L 291.5625 231.722656 L 287.363281 239.300781 L 291.648438 241.675781 L 296.097656 233.644531 L 298.746094 235.113281 Z M 292.578125 246.246094 "/>
<path style=" stroke:none;fill-rule:nonzero;fill:rgb(12%,12%,12%);fill-opacity:1;" d="M 267.625 248.902344 C 268.277344 248.035156 268.882812 247.378906 269.445312 246.929688 C 270.011719 246.480469 270.570312 246.230469 271.125 246.175781 C 271.601562 246.082031 272.15625 246.152344 272.78125 246.386719 C 273.40625 246.621094 274.046875 246.984375 274.703125 247.476562 C 275.816406 248.316406 276.484375 249.136719 276.703125 249.9375 C 276.789062 250.289062 276.796875 250.640625 276.730469 250.988281 C 276.660156 251.339844 276.546875 251.6875 276.386719 252.039062 L 276.464844 252.097656 C 277.371094 251.136719 278.363281 250.773438 279.441406 251.007812 C 280.09375 251.152344 280.871094 251.5625 281.777344 252.242188 C 282.578125 252.84375 283.179688 253.421875 283.585938 253.972656 C 283.996094 254.523438 284.21875 255.113281 284.261719 255.742188 C 284.339844 256.808594 283.785156 258.136719 282.589844 259.722656 L 276.820312 267.398438 L 262.0625 256.300781 Z M 269.558594 251.371094 L 266.613281 255.289062 L 270.371094 258.113281 L 273.285156 254.238281 L 273.582031 253.84375 C 273.652344 253.75 273.71875 253.660156 273.789062 253.566406 C 273.851562 253.429688 273.902344 253.335938 273.941406 253.28125 C 274.21875 252.75 274.234375 252.238281 273.988281 251.746094 C 273.792969 251.351562 273.410156 250.941406 272.847656 250.519531 C 272.613281 250.339844 272.375 250.191406 272.140625 250.066406 C 271.90625 249.941406 271.660156 249.871094 271.402344 249.863281 C 271.121094 249.878906 270.851562 249.988281 270.59375 250.195312 C 270.335938 250.402344 269.992188 250.792969 269.558594 251.371094 Z M 272.535156 259.742188 L 276.53125 262.746094 L 279.710938 258.511719 C 280.097656 258.003906 280.363281 257.566406 280.511719 257.203125 C 280.644531 256.75 280.605469 256.339844 280.390625 255.972656 C 280.171875 255.605469 279.84375 255.253906 279.394531 254.917969 C 279.027344 254.644531 278.695312 254.421875 278.398438 254.261719 C 278.097656 254.097656 277.785156 254.027344 277.460938 254.050781 C 276.96875 254.132812 276.425781 254.566406 275.835938 255.351562 Z M 272.535156 259.742188 "/>
<path style=" stroke:none;fill-rule:nonzero;fill:rgb(12%,12%,12%);fill-opacity:1;" d="M 257.546875 281.160156 C 257.773438 280.972656 257.941406 280.839844 258.042969 280.757812 C 258.667969 280.25 259.136719 279.8125 259.449219 279.441406 C 259.761719 279.074219 259.960938 278.675781 260.039062 278.253906 C 260.109375 277.921875 260.078125 277.613281 259.941406 277.332031 C 259.808594 277.050781 259.542969 276.660156 259.136719 276.164062 L 251.113281 266.25 L 253.867188 264.019531 L 262.1875 274.296875 C 263.40625 275.800781 263.875 277.238281 263.589844 278.609375 C 263.414062 279.40625 262.832031 280.308594 261.851562 281.3125 C 261.277344 281.90625 260.390625 282.6875 259.191406 283.660156 C 258.324219 284.363281 257.542969 284.929688 256.847656 285.367188 C 256.15625 285.800781 255.421875 286.089844 254.648438 286.230469 C 253.855469 286.34375 253.078125 286.191406 252.316406 285.773438 C 251.554688 285.355469 250.839844 284.730469 250.167969 283.902344 L 241.910156 273.703125 L 244.683594 271.457031 L 253.152344 281.917969 C 253.640625 282.519531 254.167969 282.789062 254.738281 282.738281 C 255.148438 282.699219 255.5625 282.554688 255.972656 282.304688 C 256.382812 282.058594 256.90625 281.675781 257.546875 281.160156 Z M 257.546875 281.160156 "/>
<path style=" stroke:none;fill-rule:nonzero;fill:rgb(12%,12%,12%);fill-opacity:1;" d="M 225.578125 282.664062 L 228.628906 280.8125 L 236.632812 294.011719 L 244.042969 289.515625 L 245.613281 292.105469 L 235.152344 298.449219 Z M 225.578125 282.664062 "/>
<path style=" stroke:none;fill-rule:nonzero;fill:rgb(12%,12%,12%);fill-opacity:1;" d="M 200.160156 303.648438 L 206.367188 302.179688 L 201.058594 293.542969 Z M 197.828125 291.550781 L 202.882812 290.351562 L 213.269531 306.871094 L 209.75 307.703125 L 207.796875 304.597656 L 200.011719 306.441406 L 199.660156 310.089844 L 196.09375 310.933594 L 197.265625 297.5 Z M 197.828125 291.550781 "/>
<path style=" stroke:none;fill-rule:nonzero;fill:rgb(12%,12%,12%);fill-opacity:1;" d="M 171.839844 293.71875 L 175.410156 293.730469 L 175.386719 301.289062 L 177.0625 301.292969 L 183.242188 293.753906 L 187.574219 293.765625 L 180.085938 302.777344 L 188.28125 312.234375 L 183.824219 312.21875 L 177.050781 304.320312 L 175.378906 304.316406 L 175.355469 312.195312 L 171.785156 312.183594 Z M 171.839844 293.71875 "/>
<path style=" stroke:none;fill-rule:nonzero;fill:rgb(12%,12%,12%);fill-opacity:1;" d="M 158.601562 292.582031 L 162.117188 293.203125 L 158.910156 311.386719 L 155.394531 310.765625 Z M 158.601562 292.582031 "/>
<path style=" stroke:none;fill-rule:nonzero;fill:rgb(12%,12%,12%);fill-opacity:1;" d="M 133.570312 286 L 139.167969 287.804688 L 141.972656 304.929688 L 142.066406 304.960938 L 146.527344 290.179688 L 149.921875 291.277344 L 144.25 308.847656 L 138.605469 307.027344 L 135.894531 289.933594 L 135.753906 289.886719 L 133.589844 297.234375 L 131.292969 304.667969 L 127.898438 303.570312 Z M 133.570312 286 "/>
<path style=" stroke:none;fill-rule:nonzero;fill:rgb(12%,12%,12%);fill-opacity:1;" d="M 112.035156 275.621094 L 115.234375 277.203125 L 111.886719 283.980469 L 119.613281 287.796875 L 122.960938 281.019531 L 126.136719 282.589844 L 117.960938 299.144531 L 114.78125 297.574219 L 118.269531 290.511719 L 110.546875 286.695312 L 107.058594 293.757812 L 103.855469 292.179688 Z M 112.035156 275.621094 "/>
<path style=" stroke:none;fill-rule:nonzero;fill:rgb(12%,12%,12%);fill-opacity:1;" d="M 98.867188 272.941406 L 99.667969 272.109375 C 99.988281 271.78125 100.191406 271.503906 100.28125 271.28125 C 100.371094 271.058594 100.410156 270.804688 100.398438 270.523438 C 100.386719 270.238281 100.207031 269.875 99.859375 269.433594 C 99.507812 268.992188 99.078125 268.527344 98.570312 268.039062 L 98.199219 267.679688 C 97.492188 266.996094 96.9375 266.535156 96.539062 266.296875 C 96.140625 266.058594 95.738281 265.945312 95.332031 265.953125 C 94.925781 265.960938 94.5 266.109375 94.058594 266.402344 C 93.617188 266.695312 93.140625 267.105469 92.625 267.636719 L 89.273438 271.109375 C 88.679688 271.722656 88.230469 272.289062 87.921875 272.8125 C 87.609375 273.332031 87.492188 273.792969 87.570312 274.183594 C 87.625 274.648438 87.796875 275.066406 88.085938 275.4375 C 88.378906 275.808594 88.855469 276.316406 89.515625 276.953125 L 90.207031 277.621094 C 90.347656 277.757812 90.496094 277.898438 90.648438 278.046875 C 90.847656 278.195312 90.992188 278.308594 91.074219 278.390625 C 91.425781 278.613281 91.691406 278.757812 91.871094 278.820312 C 92.054688 278.878906 92.277344 278.914062 92.542969 278.921875 C 92.925781 278.902344 93.300781 278.753906 93.660156 278.472656 C 94.019531 278.195312 94.492188 277.753906 95.074219 277.152344 L 97.589844 279.582031 L 96.785156 280.414062 L 96.476562 280.734375 C 95.917969 281.3125 95.363281 281.757812 94.8125 282.066406 C 94.109375 282.460938 93.429688 282.648438 92.765625 282.625 C 91.582031 282.507812 90.449219 281.929688 89.375 280.890625 C 89.070312 280.59375 88.609375 280.183594 87.996094 279.660156 C 87.382812 279.136719 86.953125 278.757812 86.703125 278.519531 C 85.761719 277.605469 85.0625 276.753906 84.613281 275.96875 C 84.164062 275.179688 83.933594 274.441406 83.921875 273.742188 C 83.90625 272.792969 84.304688 271.75 85.121094 270.621094 C 85.65625 269.882812 86.695312 268.710938 88.246094 267.105469 C 89.605469 265.699219 90.464844 264.832031 90.832031 264.5 C 92.078125 263.375 93.3125 262.71875 94.539062 262.535156 C 95.292969 262.441406 96.089844 262.597656 96.933594 263 C 97.941406 263.46875 99.128906 264.367188 100.496094 265.6875 C 101.902344 267.046875 102.820312 268.054688 103.25 268.722656 C 103.679688 269.386719 103.917969 270.027344 103.960938 270.640625 C 104.011719 271.488281 103.730469 272.382812 103.121094 273.320312 C 102.78125 273.835938 102.199219 274.519531 101.378906 275.371094 Z M 98.867188 272.941406 "/>
<path style=" stroke:none;fill-rule:nonzero;fill:rgb(12%,12%,12%);fill-opacity:1;" d="M 64.554688 254.902344 L 78.859375 243.226562 L 86.875 253.050781 L 84.527344 254.964844 L 78.753906 247.886719 L 75.167969 250.816406 L 80.648438 257.527344 L 78.417969 259.351562 L 72.9375 252.636719 L 69.140625 255.734375 L 74.949219 262.847656 L 72.601562 264.761719 Z M 64.554688 254.902344 "/>
<path style=" stroke:none;fill-rule:nonzero;fill:rgb(12%,12%,12%);fill-opacity:1;" d="M 53.394531 236.214844 L 67.015625 228.957031 L 64.480469 224.199219 L 67.152344 222.773438 L 73.914062 235.464844 L 71.242188 236.886719 L 68.683594 232.085938 L 55.058594 239.34375 Z M 53.394531 236.214844 "/>
<path style=" stroke:none;fill-rule:nonzero;fill:rgb(12%,12%,12%);fill-opacity:1;" d="M 63.144531 211.125 L 64.128906 214.558594 L 46.378906 219.648438 L 45.394531 216.214844 Z M 63.144531 211.125 "/>
<path style=" stroke:none;fill-rule:nonzero;fill:rgb(12%,12%,12%);fill-opacity:1;" d="M 58.976562 191.679688 L 59.414062 195.222656 L 44.089844 197.101562 L 45.148438 205.703125 L 42.140625 206.074219 L 40.648438 193.929688 Z M 58.976562 191.679688 "/>
<path style=" stroke:none;fill-rule:nonzero;fill:rgb(12%,12%,12%);fill-opacity:1;" d="M 57.898438 172.976562 C 57.84375 174.53125 57.710938 175.769531 57.496094 176.679688 C 57.148438 178.164062 56.566406 179.152344 55.742188 179.648438 C 55.15625 179.992188 54.597656 180.226562 54.066406 180.355469 C 53.140625 180.585938 52.144531 180.679688 51.078125 180.644531 L 45.121094 180.4375 C 44.007812 180.398438 43.078125 180.234375 42.332031 179.945312 C 41.863281 179.765625 41.363281 179.476562 40.835938 179.078125 C 40.019531 178.441406 39.5 177.367188 39.273438 175.847656 C 39.140625 174.957031 39.101562 173.625 39.164062 171.851562 C 39.226562 170.046875 39.410156 168.738281 39.707031 167.917969 C 40.007812 167.097656 40.429688 166.460938 40.972656 166.003906 C 41.496094 165.511719 42.222656 165.175781 43.148438 164.996094 C 44.074219 164.8125 45.097656 164.742188 46.210938 164.78125 L 51.253906 164.957031 C 52.386719 164.996094 53.253906 165.078125 53.859375 165.195312 C 54.820312 165.394531 55.621094 165.726562 56.261719 166.191406 C 57.046875 166.792969 57.550781 167.8125 57.78125 169.25 C 57.917969 170.09375 57.953125 171.335938 57.898438 172.976562 Z M 54.867188 172.941406 C 54.90625 171.820312 54.855469 170.941406 54.714844 170.316406 C 54.570312 169.6875 54.289062 169.277344 53.871094 169.074219 C 53.449219 168.875 53.027344 168.726562 52.605469 168.640625 C 52.179688 168.550781 51.765625 168.5 51.355469 168.484375 L 50.789062 168.464844 L 46.40625 168.3125 C 45.523438 168.28125 44.84375 168.300781 44.375 168.375 C 43.902344 168.449219 43.535156 168.566406 43.265625 168.71875 C 42.914062 168.9375 42.644531 169.277344 42.464844 169.738281 C 42.285156 170.199219 42.171875 171.085938 42.125 172.398438 C 42.058594 174.335938 42.351562 175.59375 43.007812 176.175781 C 43.605469 176.605469 44.535156 176.84375 45.804688 176.886719 L 50.71875 177.058594 L 51.386719 177.082031 C 52.058594 177.105469 52.589844 177.070312 52.96875 176.976562 C 53.355469 176.886719 53.660156 176.753906 53.886719 176.570312 C 54.117188 176.390625 54.3125 176.121094 54.472656 175.769531 C 54.632812 175.414062 54.746094 175.054688 54.808594 174.679688 Z M 54.867188 172.941406 "/>
<path style=" stroke:none;fill-rule:nonzero;fill:rgb(12%,12%,12%);fill-opacity:1;" d="M 48.882812 144.238281 L 43.078125 142.898438 L 43.875 139.445312 L 61.867188 143.597656 L 60.050781 151.464844 C 59.714844 152.90625 59.371094 153.972656 59.007812 154.664062 C 58.398438 155.835938 57.578125 156.554688 56.539062 156.820312 C 55.902344 156.945312 55.253906 156.976562 54.585938 156.914062 C 53.917969 156.851562 53.207031 156.734375 52.453125 156.5625 C 51.144531 156.257812 50.167969 155.929688 49.523438 155.582031 C 48.878906 155.230469 48.375 154.820312 48.015625 154.347656 C 47.652344 153.875 47.445312 153.1875 47.402344 152.285156 C 47.359375 151.382812 47.449219 150.453125 47.667969 149.492188 Z M 51.832031 144.921875 L 50.824219 149.285156 C 50.691406 149.863281 50.613281 150.371094 50.585938 150.808594 C 50.558594 151.25 50.613281 151.585938 50.746094 151.820312 C 50.941406 152.203125 51.199219 152.472656 51.519531 152.628906 C 51.835938 152.789062 52.363281 152.949219 53.097656 153.121094 C 53.753906 153.273438 54.253906 153.363281 54.601562 153.390625 C 54.949219 153.421875 55.289062 153.382812 55.625 153.273438 C 55.964844 153.167969 56.246094 152.921875 56.480469 152.535156 C 56.710938 152.152344 56.914062 151.585938 57.085938 150.832031 L 58.117188 146.371094 Z M 51.832031 144.921875 "/>
<path style=" stroke:none;fill-rule:evenodd;fill:rgb(100%,100%,100%);fill-opacity:1;" d="M 175.664062 29.96875 C 211.136719 29.96875 243.992188 43.117188 269.328125 64.289062 L 269.839844 64.785156 C 247.582031 55.648438 207.578125 46.59375 176.191406 71.269531 C 145.214844 48.996094 100.441406 52.386719 88.570312 59.375 L 88.515625 59.257812 C 111.5625 41.464844 140.300781 29.96875 175.667969 29.96875 Z M 175.664062 29.96875 "/>
</g>
</svg>
