<?xml version="1.0" encoding="UTF-8" standalone="no"?>
<svg
   xmlns:dc="http://purl.org/dc/elements/1.1/"
   xmlns:cc="http://creativecommons.org/ns#"
   xmlns:rdf="http://www.w3.org/1999/02/22-rdf-syntax-ns#"
   xmlns:svg="http://www.w3.org/2000/svg"
   xmlns="http://www.w3.org/2000/svg"
   id="svg4926"
   version="1.1"
   viewBox="0 0 363.98178 661.4252"
   height="661.42517"
   width="363.98178">
  <defs
     id="defs4920" />
  <metadata
     id="metadata4923">
    <rdf:RDF>
      <cc:Work
         rdf:about="">
        <dc:format>image/svg+xml</dc:format>
        <dc:type
           rdf:resource="http://purl.org/dc/dcmitype/StillImage" />
        <dc:title></dc:title>
      </cc:Work>
    </rdf:RDF>
  </metadata>
  <g
     transform="translate(-191.7854,-226.32131)"
     id="layer1">
    <path
       id="path5142"
       d="m 224.78568,887.22367 c -4.23874,-1.59533 -5.96935,-2.94621 -7.56124,-5.90217 -4.08489,-7.58519 4.67984,-16.65507 31.61734,-32.71814 17.87257,-10.65757 27.91287,-16.50982 31.43946,-18.32532 1.09756,-0.56503 3.07128,-2.97738 4.38604,-5.36079 2.29028,-4.15182 2.34281,-4.67466 1.25317,-12.47268 -0.62553,-4.47657 -1.13675,-10.41972 -1.13605,-13.20701 l 10e-4,-5.06781 -8.25,-3.35331 c -13.25385,-5.3872 -23.38667,-10.73372 -25.54644,-13.47942 l -2.00752,-2.55215 4.27742,-12.23976 c 2.35258,-6.73186 5.71761,-16.28975 7.47784,-21.23975 7.61245,-21.40727 13.0487,-45.36398 13.0487,-57.50366 0,-4.67707 1.43912,-9.79968 7.16279,-25.49634 4.51784,-12.38977 4.34923,-11.08718 2.90901,-22.47377 -0.58949,-4.66057 -1.0718,-10.37151 -1.0718,-12.69098 0,-2.31947 -0.4251,-4.47994 -0.94467,-4.80106 -0.51957,-0.32111 -4.86717,1.66528 -9.66133,4.4142 -15.66415,8.98167 -24.26424,10.14216 -33.79013,4.55961 -9.30541,-5.45333 -12.08389,-10.28782 -15.52205,-27.008 -1.24406,-6.05 -2.40917,-11.15027 -2.58913,-11.33393 -1.2924,-1.31893 7.1102,-19.78964 18.27214,-40.16607 4.06731,-7.425 8.71428,-16.59673 10.3266,-20.38163 6.80329,-15.97065 19.43163,-27.5786 42.0203,-38.62497 9.98034,-4.88062 16.88827,-9.32844 16.88827,-10.87388 0,-1.0627 -10.97447,-13.11952 -11.94177,-13.11952 -0.42568,0 -2.49638,2.8125 -4.60156,6.25 -11.45839,18.71016 -34.75633,33.99459 -53.65245,35.19827 -2.91732,0.18583 -8.50779,0.66333 -12.42326,1.06111 -11.34838,1.1529 -27.04103,-3.27315 -29.3172,-8.26879 -1.3975,-3.06718 0.23586,-4.68579 3.15304,-3.12456 1.90592,1.02001 13.7832,-0.74312 13.7832,-2.04606 0,-0.3684 -2.8125,-1.24506 -6.25,-1.94813 -7.50275,-1.53455 -14.75,-4.56738 -14.75,-6.1726 0,-0.76596 0.59766,-0.87204 1.75,-0.31062 0.9625,0.46892 4.675,0.85457 8.25,0.85699 21.03761,0.0142 43.1604,-25.05167 45.00799,-50.99561 0.48819,-6.8552 1.31283,-10.42987 3.46032,-15 3.8018,-8.09068 3.90185,-13.90654 0.32832,-19.08358 -6.23525,-9.0331 -8.29705,-35.39904 -4.26654,-54.55944 1.15402,-5.48602 1.63237,-8.95168 3.49637,-10.30037 1.48545,-1.0748 4.01381,-0.57707 7.28358,-0.34056 5.68333,0.41109 5.84599,0.35117 7.18727,-2.64772 0.75478,-1.68758 3.70608,-5.54333 6.55845,-8.56833 l 5.18611,-5.5 -0.60478,-7.94643 c -0.48693,-6.39793 -0.20146,-9.30073 1.46497,-14.89628 1.97717,-6.63896 1.99401,-7.11784 0.37645,-10.70495 -3.90701,-8.66419 2.03367,-23.72746 13.42755,-34.0471 9.47321,-8.58006 32.6916,-20.19518 49.09394,-24.5595 19.58471,-5.21109 61.82882,1.36872 73.23124,11.40627 2.19837,1.93522 4.35931,0.38871 5.27362,-3.77415 0.75653,-3.44445 4.12535,-7.97786 5.92843,-7.97786 0.80589,0 1.51751,1.93679 1.90084,5.17343 0.82133,6.93483 1.56014,7.36706 6.69631,3.91757 5.11853,-3.43765 6.56397,-3.14115 4.46589,0.91609 -2.0329,3.93121 -2.1556,3.84119 3.75367,2.75385 6.08475,-1.11963 15.23957,-0.42944 17.3314,1.30661 1.80601,1.49886 0.39113,3.47154 -3.12242,4.35339 -1.35244,0.33944 -2.45898,0.96516 -2.45898,1.39049 0,1.09006 16.02625,8.18238 21.02972,9.30658 8.52937,1.91642 25.24274,16.13045 29.87656,25.40878 3.64818,7.30479 7.40145,26.85393 6.52256,33.97321 -0.40739,3.3 -0.66727,7.89907 -0.57751,10.22016 0.0898,2.32108 -0.73984,6.59608 -1.84356,9.5 -1.10372,2.90391 -2.18584,7.99413 -2.18584,7.99413 0,0 5.21234,-1.11302 11.17807,-2.71429 11.60118,-3.11389 21.38921,-1.12942 24.13314,4.89287 1.46093,3.2064 -2.15603,22.95065 -6.33969,34.60713 -4.1406,11.53647 -12.90615,25.77465 -17.44582,28.33781 -2.02676,1.14434 -8.84573,-3.46656 -10.84542,-7.33354 -0.85447,-1.65235 -1.67042,-3.00427 -1.81324,-3.00427 -0.14281,0 -0.0906,4.3875 0.11591,9.75 0.2186,5.67486 -0.28908,14.46646 -1.21465,21.03438 -0.87463,6.20641 -1.59023,15.03255 -1.59023,19.61364 0,7.74673 0.19233,8.52342 2.75,11.10562 6.24913,6.30904 12.88826,6.3788 22.7047,0.23858 11.4495,-7.16171 16.42013,-14.05623 18.07107,-25.06552 1.0598,-7.06722 2.23966,-4.69799 1.34816,2.70718 -0.80653,6.69938 -5.22143,16.79182 -10.32596,23.60512 -4.30157,5.74156 -0.93003,4.63379 5.39841,-1.77371 5.66474,-5.73551 11.05362,-14.39164 11.05362,-17.75537 0,-0.99364 0.66765,-1.47614 1.75,-1.26469 4.55538,0.88994 -4.28427,20.71837 -14.06734,31.55477 -1.11721,1.2375 -1.56016,2.25 -0.98433,2.25 1.6595,0 9.30167,-8.77267 9.30167,-10.67766 0,-1.30627 0.28013,-1.44221 1.15961,-0.56273 1.86143,1.86143 -3.08941,8.45367 -15.63736,20.82174 -18.25144,17.98981 -31.58443,23.31199 -48.7579,19.46288 -9.68419,-2.17054 -13.76435,-2.7288 -13.76435,-1.8833 0,1.8157 8.11688,16.94669 9.34337,17.41734 0.70214,0.26943 8.89962,-1.99617 18.21662,-5.03468 9.31701,-3.03851 17.73716,-5.52884 18.71145,-5.53408 2.68918,-0.0144 3.31268,2.76013 5.66593,25.21333 1.19454,11.39756 3.27001,28.27256 4.61216,37.5 2.22364,15.28772 5.89946,51.4727 6.64735,65.4368 0.43378,8.09921 -0.37265,8.63936 -40.94688,27.42628 -5.22289,2.41834 -8.25,4.39771 -8.25,5.39452 0,0.866 -0.66163,2.51915 -1.47028,3.67367 -2.10276,3.00211 -0.7477,12.90673 5.51978,40.34589 2.82661,12.375 5.3697,26.1 5.65129,30.5 l 0.51199,8 -5.76958,6.33761 c -12.76708,14.02404 -30.45668,26.03628 -48.9432,33.23519 -8.17368,3.18295 -8.49981,3.52052 -8.50137,8.79964 -7.5e-4,2.54516 -0.62459,8.22756 -1.3863,12.62756 -2.48464,14.35241 -1.39743,16.12701 13.6492,22.27884 12.37525,5.05963 18.97407,9.06876 26.57346,16.14476 9.35931,8.71471 10.85762,15.50507 4.62809,20.97467 -15.30352,13.43667 -43.9857,13.62071 -52.78767,0.33871 -3.44307,-5.19553 -5.88768,-6.52087 -17.2949,-9.37635 -6.64092,-1.66237 -9.61198,-2.95241 -11.78095,-5.11533 l -2.90044,-2.89233 0.81523,-15.17649 c 0.9506,-17.69677 0.84152,-23.2517 -0.59714,-30.40904 -1.2985,-6.46009 -1.54351,-6.61146 -7.55094,-4.66524 -7.08822,2.29635 -35.13653,2.93129 -46.86627,1.06092 -10.70293,-1.70664 -10.77231,-1.66287 -12.42753,7.84213 -0.81641,4.68818 -0.81234,8.28822 0.0154,13.62318 2.93506,18.91697 -0.27164,24.2021 -17.80462,29.34466 -5.15488,1.51197 -6.6804,2.49249 -8.93128,5.7405 -7.11832,10.27175 -18.07665,17.40936 -33.52561,21.83661 -7.25424,2.07887 -36.04616,3.79086 -39.82636,2.36811 z"
       style="fill:#000000" />
    <path
       id="path5140"
       d="m 247.39736,867.70424 c 8.05655,-3.62705 13.38832,-7.39792 13.38832,-9.46882 0,-1.08755 -0.71293,-1.30499 -2.75,-0.83877 -7.75917,1.77585 -20.25808,9.96858 -18.80214,12.32434 0.86415,1.39823 0.23082,1.55469 8.16382,-2.01675 z"
       style="fill:#ffffff" />
    <path
       id="path5138"
       d="m 461.55931,861.96642 c 2.12503,-1.34864 -1.69621,-3.89794 -7.02363,-4.68574 -4.12763,-0.61037 -4.75,-0.47268 -4.75,1.05089 0,3.57959 7.9792,6.04299 11.77363,3.63485 z"
       style="fill:#ffffff" />
    <path
       id="path5136"
       d="m 422.62752,851.73528 c 1.46199,-1.13854 5.7782,-4.17604 9.59158,-6.75 3.81337,-2.57395 7.075,-5.12992 7.24806,-5.67992 0.45278,-1.43904 -7.94805,-6.5 -10.78953,-6.5 -6.83732,0 -22.21399,16.85136 -16.74802,18.35421 0.74584,0.20507 2.70607,0.83639 4.35607,1.40294 1.65,0.56655 3.15383,1.07796 3.34184,1.13647 0.18801,0.0585 1.53801,-0.82515 3,-1.9637 z"
       style="fill:#ffffff" />
    <path
       id="path5134"
       d="m 295.82417,847.3861 c 5.94803,-5.58637 5.90808,-6.05706 -0.96176,-11.33142 -6.96161,-5.34483 -10.25034,-5.1175 -19.07673,1.31866 -4.46067,3.2527 -4.69766,4.0401 -1.46047,4.85259 3.41519,0.85715 9.3318,4.61571 12.47377,7.92402 3.00427,3.16333 2.57396,3.29511 9.02519,-2.76385 z"
       style="fill:#ffffff" />
    <path
       id="path5132"
       d="m 417.99396,831.96329 c 8.67486,-5.58844 8.88591,-5.83071 8.69479,-9.98116 -0.0931,-2.02222 0.1787,-6.98962 0.60405,-11.03867 0.72882,-6.93796 0.6645,-7.32829 -1.11688,-6.77836 -1.03963,0.32095 -5.04024,1.58686 -8.89024,2.81314 -4.498,1.43267 -9.6277,2.24703 -14.35166,2.27836 l -7.35166,0.0488 0.71408,4.5 c 0.39274,2.475 0.84836,10.0877 1.0125,16.9171 0.27868,11.59539 0.44325,12.49461 2.4869,13.58834 1.9535,1.04548 2.71018,0.66307 7.04744,-3.56154 2.67243,-2.60303 7.69024,-6.55672 11.15068,-8.78597 z"
       style="fill:#ffffff" />
    <path
       id="path5130"
       d="m 319.34405,831.42883 c 0.83664,-3.33345 1.0595,-22.74161 0.26676,-23.23155 -0.37592,-0.23233 -5.73823,-1.0891 -11.91625,-1.90394 -6.91373,-0.91187 -12.47011,-2.21158 -14.45081,-3.38022 l -3.21806,-1.8987 -0.5213,7.64547 c -0.28671,4.20501 -0.42174,10.02608 -0.30005,12.93573 l 0.22124,5.29025 6.15698,4.02297 c 3.38633,2.21263 7.06276,5.29503 8.16984,6.84979 l 2.01288,2.82682 6.50759,-3.45555 c 4.30181,-2.28427 6.69862,-4.21667 7.07118,-5.70107 z"
       style="fill:#ffffff" />
    <path
       id="path5128"
       d="m 386.58631,800.35737 c 57.42378,-10.23575 80.37423,-20.26753 101.62845,-44.4224 5.98874,-6.80606 6.11472,-5.04024 -3.36227,-47.12961 -2.1672,-9.625 -4.2274,-19.075 -4.57824,-21 -1.37517,-7.54539 -1.69038,-7.92253 -4.7067,-5.63125 -1.60532,1.21944 -1.61879,2.06757 -0.20516,12.91678 0.83214,6.38641 1.3803,14.89729 1.21814,18.91306 l -0.29485,7.30141 -1.19324,-5.5 c -0.65628,-3.025 -1.42444,-8.425 -1.70702,-12 -0.663,-8.3877 -1.78506,-17 -2.21486,-17 -0.1851,0 -1.80992,0.89832 -3.61071,1.99626 -1.80079,1.09795 -4.11409,1.99795 -5.14067,2 -1.69064,0.003 -1.80645,0.59257 -1.22918,6.25374 0.84316,8.2686 1.09635,30.58266 0.35542,31.32359 -0.32104,0.32104 -0.87084,-2.48918 -1.22178,-6.24494 -2.97505,-31.83875 -3.40932,-33.28783 -8.38776,-27.98853 l -2.19844,2.34013 2.0211,10.40987 c 1.93663,9.97486 2.79,27.70902 1.12648,23.40988 -0.42563,-1.1 -1.82808,-8.83102 -3.11655,-17.18004 l -2.34268,-15.18004 -5.77119,-4.06996 c -3.17416,-2.23848 -6.02407,-4.06996 -6.33314,-4.06996 -0.87624,0 0.24265,9.09857 2.45227,19.94134 1.10657,5.43005 1.96746,11.60214 1.91308,13.71574 l -0.0989,3.84292 -1.44107,-4.5 c -1.48214,-4.62825 -5.02569,-20.59308 -6.04841,-27.25 -0.65703,-4.27664 -2.12313,-4.69173 -7.9589,-2.2534 -3.11861,1.30304 -3.51923,1.85272 -3.09754,4.25 0.26638,1.51437 1.4269,8.6034 2.57893,15.7534 1.81436,11.26072 1.99262,14.34977 1.15413,20 -0.17944,1.20915 -2.06672,-7.59697 -4.39346,-20.5 -2.66876,-14.79977 -2.70276,-14.94798 -3.54911,-15.47106 -0.97373,-0.60179 -14.58655,3.93988 -17.47276,5.82948 -2.01529,1.31941 -2.0536,1.85081 -1.3518,18.74974 0.77386,18.6339 0.28989,26.55841 -1.43385,23.47825 -0.53848,-0.9622 -0.71057,-2.72527 -0.38242,-3.91793 0.52497,-1.90807 -2.02101,-32.13425 -2.98448,-35.43203 -0.29496,-1.00961 -1.02758,-0.99642 -3.64534,0.0657 -4.51342,1.83121 -5.63803,5.6604 -4.50976,15.35543 0.95699,8.22325 0.20573,14.63542 -1.26529,10.7996 -0.43088,-1.12356 -1.11482,-6.46311 -1.51987,-11.86567 l -0.73644,-9.82282 -4.47548,0.50445 c -5.75456,0.64862 -7.18023,2.17887 -7.9303,8.51204 -0.68137,5.75306 -1.77418,6.03934 -2.77099,0.7259 -0.77453,-4.1286 -0.5914,-4.09645 -8.1615,-1.43254 -8.13653,2.86323 -16.77912,2.99092 -21.90655,0.32364 -3.71383,-1.93192 -4.16515,-2.64673 -6.30843,-9.99147 -1.26963,-4.35087 -3.19106,-13.31068 -4.26984,-19.91068 -2.69549,-16.4911 -3.33408,-17.67616 -4.8498,-9 -1.94788,11.14985 -3.86869,28.03612 -4.63531,40.75 -0.41141,6.82309 -1.13441,11.75 -1.72424,11.75 -1.70088,0 0.37312,-34.82529 3.36483,-56.5 2.3339,-16.90892 2.3311,-16.5 0.11307,-16.5 -1.7163,0 -2.32345,1.35596 -4.14183,9.25 -1.86961,8.11648 -8.19373,40.63028 -13.61538,70 -0.98992,5.3625 -2.16733,9.75 -2.61646,9.75 -0.44914,0 -0.8096,-0.5625 -0.80102,-1.25 0.0225,-1.80505 5.36545,-32.5578 8.9041,-51.25 2.80389,-14.81098 5.05253,-30.88183 5.07211,-36.25 0.007,-1.83516 -0.54492,-2.25 -2.9918,-2.25 -1.65,0 -3,0.15133 -3,0.33629 0,0.18496 -2.23644,9.29746 -4.96987,20.25 -2.73344,10.95254 -6.55464,27.11371 -8.49157,35.91371 -5.29919,24.07565 -8.31277,36.60755 -8.9584,37.25317 -1.60504,1.60505 -1.14079,-1.81325 2.55069,-18.78056 2.21046,-10.15997 5.5153,-25.67264 7.34412,-34.47264 1.82882,-8.8 4.82707,-21.74263 6.66279,-28.76139 3.43331,-13.12705 3.37643,-15.79911 -0.35195,-16.5344 -1.11615,-0.22012 -2.29981,2.46601 -4.62686,10.5 -4.65655,16.07635 -5.97245,21.68067 -9.02414,38.43287 -1.71534,9.41633 -3.26767,15.40722 -4.06077,15.67158 -0.85356,0.28452 -1.09664,-0.19824 -0.72523,-1.44035 0.30726,-1.02757 1.26431,-6.81831 2.12678,-12.86831 2.25366,-15.8088 5.30833,-30.81894 8.09991,-39.80162 5.21977,-16.79609 1.13992,-23.46202 -4.87264,-7.96124 -6.14509,15.84246 -10.65056,35.92766 -10.68537,47.6349 -0.0183,6.14676 -1.3206,10.73583 -13.54271,47.72128 -6.98175,21.12757 -7.44119,23.72209 -4.64827,26.24965 5.3385,4.83127 36.29523,15.48036 56.67352,19.49564 2.75,0.54186 9.725,1.95659 15.5,3.14386 21.67419,4.45595 35.24707,4.58969 57.80063,0.56954 z"
       style="fill:#013efe;fill-opacity:1" />
    <path
       id="path5126"
       d="m 323.80099,716.05536 c 0.014,-6.17989 1.14094,-10.69768 2.14688,-8.60676 0.78315,1.62786 -0.3292,15.35676 -1.24425,15.35676 -0.50487,0 -0.91105,-3.0375 -0.90263,-6.75 z"
       style="fill:#000000" />
    <path
       id="path5124"
       d="m 408.78568,709.30536 c 0,-4.33333 0.42222,-7.5 1,-7.5 0.57778,0 1,3.16667 1,7.5 0,4.33333 -0.42222,7.5 -1,7.5 -0.57778,0 -1,-3.16667 -1,-7.5 z"
       style="fill:#000000" />
    <path
       id="path5122"
       d="m 350.83178,715.93047 c 3.05035,-0.39047 7.10035,-1.65272 9,-2.80498 1.89964,-1.15226 6.13443,-2.86029 9.41063,-3.79561 3.2762,-0.93532 15.2012,-5.3023 26.5,-9.70439 11.2988,-4.40209 24.59327,-9.37178 29.54327,-11.04376 12.0098,-4.05659 11.80926,-3.80676 10.95128,-13.64249 -0.81736,-9.36995 -2.67613,-10.7422 -6.39662,-4.72233 -4.47426,7.23952 -21.94506,7.85765 -23.70669,0.83876 -0.91739,-3.6552 18.80216,-22.88938 26.90203,-26.23986 5.42732,-2.245 5.75,-2.57185 5.75,-5.82417 0,-1.89513 0.94639,-6.89899 2.10308,-11.11967 l 2.10309,-7.67398 -2.48787,-3.66608 c -2.40939,-3.55044 -2.4718,-4.06921 -1.9783,-16.44632 0.75674,-18.97957 -2.27223,-34.36556 -10.18265,-51.72382 -3.96137,-8.69266 -4.85003,-9.08434 -18.3414,-8.08404 -10.96745,0.81317 -13.11733,1.09872 -27.21595,3.61485 -18.82456,3.35956 -19.69976,3.66156 -20.37349,7.03021 -0.3227,1.61354 -1.62941,3.97638 -2.9038,5.25077 -1.87237,1.87236 -2.16533,2.87504 -1.52646,5.22443 0.43483,1.59905 1.03052,4.93237 1.32376,7.40737 0.29325,2.475 0.77021,5.98178 1.05993,7.79283 0.28972,1.81106 0.90937,14.18606 1.377,27.5 0.61699,17.56621 1.4193,27.08773 2.92453,34.70717 5.82427,29.48236 7.89421,53.3777 5.39077,62.23098 -1.78341,6.30692 -2.76163,1.89444 -2.40118,-10.83107 0.27368,-9.66237 -0.0458,-14.77956 -1.21738,-19.5 -3.53468,-14.24147 -5.87535,-32.27903 -7.12417,-54.89991 -1.02192,-18.511 -2.67758,-39.39562 -3.4089,-43 -0.74294,-3.6617 -4.75342,-5.3365 -4.5035,-1.8807 0.0644,0.89062 0.42901,6.48995 0.81023,12.44295 0.38121,5.953 0.8346,11.07432 1.00751,11.3807 0.17292,0.30638 0.61634,5.28205 0.98538,11.05705 0.36905,5.775 1.10697,12.3 1.63984,14.5 1.48826,6.14443 4.92636,46.90505 5.62127,66.64339 l 0.62116,17.64339 -5.40125,3.09723 c -11.01766,6.31783 -17.94521,3.64517 -19.72155,-7.6086 -0.5882,-3.72647 -3.9903,-25.45041 -7.56021,-48.27541 -3.56992,-22.825 -6.93643,-43.525 -7.48114,-46 -0.54471,-2.475 -1.25887,-7.76002 -1.58702,-11.74449 -0.66567,-8.08262 -1.91658,-12.25551 -3.67386,-12.25551 -1.58018,0 -0.46776,16.94453 2.25535,34.35389 1.13095,7.23036 2.42885,17.19611 2.88422,22.14611 1.15334,12.53698 6.42283,47.0914 8.91878,58.48442 3.86196,17.62833 6.13744,21.66116 11.56418,20.49521 1.65,-0.35451 5.49574,-0.96404 8.5461,-1.35452 z"
       style="fill:#008000;fill-opacity:1" />
    <path
       id="path5120"
       d="m 353.36943,704.05536 4.34323,-2.75 0.0231,-9.5 c 0.0385,-15.83273 -3.25767,-51.42931 -9.81527,-106 l -1.74242,-14.5 -7.68374,-0.29184 c -4.22606,-0.16051 -8.58934,0.19282 -9.69618,0.78518 -2.60961,1.39662 -2.61702,5.99452 -0.046,28.50666 1.06785,9.35 2.42169,21.5 3.00854,27 3.10533,29.10343 4.17493,36.17308 9.68281,64 3.39482,17.15132 3.98246,17.77956 11.92591,12.75 z"
       style="fill:#ffffff" />
    <path
       id="path5118"
       d="m 451.51013,688.20196 c 2.55864,-1.95157 4.2097,-2.4812 6.59439,-2.11535 4.33225,0.66464 8.25436,-1.16905 14.18116,-6.63009 2.75,-2.53389 5.3375,-4.61699 5.75,-4.62912 0.4125,-0.0121 1.65,-0.92204 2.75,-2.02204 2.34396,-2.34396 2.83114,-14.81361 0.88129,-22.55718 -1.28559,-5.10554 -1.00262,-4.9543 -5.18095,-2.76906 -8.39425,4.39015 -17.37333,4.50186 -32.45216,0.40373 -4.27641,-1.16224 -9.31301,-0.16985 -15.61735,3.07717 -2.46848,1.27138 -18.63083,17.4425 -18.63083,18.64093 0,5.36939 12.75154,3.82638 18.66067,-2.25806 2.7909,-2.87369 4.17719,-3.53753 7.38747,-3.53753 h 3.95186 v 10.03212 c 0,16.39935 3.47491,20.65671 11.72445,14.36448 z"
       style="fill:#ffe0bd;fill-opacity:1" />
    <path
       id="path5116"
       d="m 519.93926,647.80386 c 11.82304,-6.39951 13.72067,-9.01766 12.02043,-16.5845 -0.60728,-2.7027 -1.38405,-8.064 -1.72615,-11.914 -0.3421,-3.85 -0.7874,-8.125 -0.98955,-9.5 -0.20215,-1.375 -1.08136,-9.475 -1.95378,-18 -0.87243,-8.525 -1.98904,-18.2 -2.48135,-21.5 -0.4923,-3.3 -1.17001,-8.925 -1.506,-12.5 -2.73519,-29.10294 -5.79132,-45.49251 -8.30316,-44.52863 -0.82345,0.31598 -5.56626,1.74516 -10.53958,3.17595 -4.97332,1.43078 -11.88534,3.87696 -15.36003,5.43595 l -6.31763,2.83453 2.07959,5.27596 c 9.61462,24.39247 12.03088,55.76203 5.55657,72.139 -2.29449,5.80399 -2.73022,8.23953 -4.14468,23.16724 -0.31269,3.3 -1.12721,8.70575 -1.81004,12.01278 -1.0775,5.21842 -1.01422,6.7377 0.47904,11.5 0.9463,3.01797 1.74805,7.09972 1.78165,9.07055 0.0336,1.97084 0.30555,3.8278 0.60433,4.12658 0.81064,0.81064 21.57602,-8.2388 32.61034,-14.21141 z"
       style="fill:#008000;fill-opacity:1" />
    <path
       id="path5114"
       d="m 318.33559,646.55536 c -0.5912,-7.40969 -4.14501,-38.1831 -4.99835,-43.28204 -0.18704,-1.11762 -0.66553,-5.50512 -1.0633,-9.75 -0.69212,-7.38588 -0.83142,-7.71796 -3.23767,-7.71796 -3.20797,0 -7.78214,4.7963 -11.99166,12.57402 -1.76401,3.25929 -4.31562,6.95847 -5.67023,8.22041 -3.55177,3.30879 -4.92179,8.42198 -4.31301,16.09705 1.32492,16.70367 8.3623,26.07991 23.01035,30.65777 8.82105,2.75678 9.01368,2.59829 8.26387,-6.79925 z"
       style="fill:#fe003e;fill-opacity:1" />
    <path
       id="path5112"
       d="m 468.57727,645.27814 c 9.74665,-1.23757 13.95839,-7.13673 14.95111,-20.94123 l 0.57303,-7.96844 -2.90786,1.9456 c -5.09681,3.41019 -11.67821,6.49129 -13.86574,6.49129 -4.43536,0 -14.54213,-4.30195 -14.54213,-6.18986 0,-1.06501 0.98727,-0.96583 11,1.10501 5.05764,1.04603 10.48058,-0.75612 16.81575,-5.58819 10.32003,-7.87146 12.83038,-36.09331 5.94431,-66.82696 -2.49604,-11.14023 -4.23813,-15.69823 -12.03945,-31.5 -7.35992,-14.90772 -10.64198,-18.45702 -23.90273,-25.84899 -5.27767,-2.94194 -11.52501,-7.31475 -13.88299,-9.71735 l -4.28722,-4.36836 -1.7255,4.89974 c -5.5986,15.89776 -25.49245,32.76717 -39.69881,33.66343 -2.59785,0.16389 -6.35142,0.58183 -8.34127,0.92875 -2.42683,0.42309 -4.63271,0.10598 -6.70034,-0.96323 -3.82904,-1.98007 -6.04302,-1.9977 -11.99385,-0.0955 -2.57835,0.82418 -9.8629,1.89827 -16.1879,2.38686 -11.34256,0.87617 -11.54535,0.85431 -14.81242,-1.59702 -2.98965,-2.24318 -3.47686,-2.33719 -5,-0.96477 -2.66546,2.4017 -6.90199,3.01629 -11.64265,1.68899 -12.69811,-3.55525 -13.79834,-17.58869 -2.10037,-26.79031 l 2.45283,-1.92939 -3.261,-3.16069 -3.261,-3.16068 -2.40309,2.55797 c -1.32169,1.40688 -8.53953,5.95809 -16.03962,10.11378 -14.57333,8.07488 -25.86381,16.39511 -32.01793,23.59482 -2.09029,2.44543 -8.4702,13.62976 -14.17759,24.85408 -5.70738,11.22434 -12.21917,23.33287 -14.47063,26.90787 -7.28733,11.57123 -8.50014,19.98459 -4.85713,33.69447 1.59741,6.01162 6.2076,14.41511 10.40963,18.97474 8.13273,8.82486 30.87215,3.15661 46.37396,-11.55962 l 8.0158,-7.60959 h -8.36584 c -11.61063,0 -15.08009,-2.11755 -15.51814,-9.47135 -0.33727,-5.66203 1.07271,-6.05367 2.09901,-0.58303 1.04036,5.5456 4.84166,7.87696 11.82975,7.25526 6.3527,-0.56517 16.01566,-5.27031 16.56975,-8.06823 0.35991,-1.81738 -3.26343,-2.34759 -4.32332,-0.63265 -1.26619,2.04874 -4.84965,0.88565 -8.49133,-2.75604 -6.42595,-6.42595 -7.24265,-13.83664 -3.37987,-30.66887 l 0.67123,-2.92492 -3.07213,2.18755 c -3.04333,2.16704 -5.06738,6.35354 -7.25847,15.01322 -1.37033,5.41588 -2.35055,4.66056 -2.23359,-1.72111 0.0566,-3.09031 1.0279,-6.70349 2.67653,-9.9569 2.35952,-4.6563 3.28,-8.17293 2.13925,-8.17293 -0.24661,0 -3.96287,1.11023 -8.25836,2.46717 -9.19996,2.90627 -15.01777,6.89174 -19.1359,13.10898 -3.23283,4.88068 -4.77036,4.78702 -2.6887,-0.16378 3.68857,-8.77252 14.06031,-15.46193 27.97531,-18.04311 l 8.3324,-1.54562 -0.0518,-12.16182 c -0.0456,-10.70555 0.21137,-12.64079 2.14617,-16.16182 l 2.198,-4 -0.46898,5.5 c -0.25795,3.025 -0.7841,8.27981 -1.16923,11.67736 -1.24452,10.97893 0.39691,10.85961 4.06772,-0.29567 3.47191,-10.55084 9.09198,-22.64464 7.84503,-16.88169 -0.35702,1.65 -1.94578,7.05 -3.53059,12 -1.5848,4.95 -3.15012,11.7 -3.47849,15 l -0.59703,6 3.88142,-3.48567 c 2.13479,-1.91711 6.35643,-5.83063 9.38143,-8.69669 9.9079,-9.38733 35.00531,-16.7812 45.36077,-13.36359 4.49874,1.48472 9.63923,5.65058 9.63923,7.81166 0,2.17944 7.04073,12.23429 8.56685,12.23429 0.67892,0 6.34162,-0.86905 12.58378,-1.93121 6.24215,-1.06217 15.99297,-2.43818 21.66849,-3.0578 5.67551,-0.61961 11.21376,-1.45753 12.30721,-1.86202 1.97306,-0.72988 1.97253,-0.74953 -0.0691,-2.59719 -2.26296,-2.04794 -2.73709,-4.55178 -0.86195,-4.55178 0.65741,0 2.45741,1.20919 4,2.68709 3.45685,3.31188 3.85021,1.28256 0.87995,-4.53963 -1.14545,-2.24527 -1.59561,-4.30547 -1.11181,-5.08828 0.86868,-1.40554 3.03658,-0.62674 3.03658,1.09087 0,0.56761 1.61231,2.90356 3.58291,5.19099 5.86052,6.80276 15.80302,28.5856 18.55827,40.65896 4.02279,17.62765 4.10565,18.42523 2.98467,28.7294 -1.17778,10.82637 -0.52475,14.91181 3.01023,18.83245 1.8128,2.01058 1.8099,2.2841 -0.11688,11 -2.79326,12.63544 -2.68554,14.04183 1.2308,16.06932 3.19009,1.65151 12.79671,3.35814 15.75,2.798 0.825,-0.15648 3.88122,-0.58685 6.79159,-0.95639 z"
       style="fill:#fe003e;fill-opacity:1" />
    <path
       id="path5110"
       d="m 295.98646,585.67941 c 9.80507,-2.08332 27.79922,-12.42454 27.79922,-15.97618 0,-2.44982 1.8949,-2.79417 14.66046,-2.66417 15.89335,0.16186 20.91601,-3.27455 12.08954,-8.27146 -3.84605,-2.17735 -5.28592,-2.38808 -15.14893,-2.21716 -12.03047,0.20848 -14.76257,-0.46365 -9.54582,-2.34838 4.23868,-1.53138 14.1711,-1.68575 23.32497,-0.36252 7.02214,1.01508 9.61978,0.3328 9.61978,-2.52666 0,-3.26849 -22.30349,-5.31584 -34.25,-3.14398 -6.82425,1.24064 -6.55722,-1.47606 0.36483,-3.71163 6.30303,-2.03565 14.19517,-2.08106 23.3848,-0.13455 9.09485,1.92644 10.50037,1.88184 10.50037,-0.33322 0,-2.38732 -5.95985,-5.63556 -13.30226,-7.25 -5.40376,-1.18817 -19.62248,-0.27935 -26.94774,1.72241 -3.21867,0.87957 -1.79611,-1.73934 1.7495,-3.22079 6.47472,-2.70531 17.62949,-3.87574 25.11544,-2.63528 7.1557,1.18573 9.55816,0.31795 7.15069,-2.58288 -5.32927,-6.42137 -23.54381,-5.59852 -38.22029,1.72663 -10.48548,5.23339 -24.04651,18.38376 -29.43224,28.54096 -2.91115,5.49027 -2.95824,16.93788 -0.0928,22.55465 2.23652,4.38396 2.98896,4.57469 11.18045,2.83421 z"
       style="fill:#ffe0bd;fill-opacity:1" />
    <path
       id="path5108"
       d="m 357.28568,512.27243 c 9.02068,-0.63986 11.5,-1.18627 11.5,-2.53446 0,-0.51293 -0.7875,-0.95858 -1.75,-0.99032 -0.9625,-0.0317 -6.925,-0.49932 -13.25,-1.03905 -15.03798,-1.28325 -14.91716,-1.28818 -17.1119,0.69803 -4.07938,3.69179 -0.73377,5.5433 8.6119,4.76597 2.2,-0.18299 7.6,-0.58806 12,-0.90017 z"
       style="fill:#fe003e;fill-opacity:1" />
    <path
       id="path5106"
       d="m 330.86728,508.28611 c 2.50656,-1.63941 6.89338,-4.51348 9.74849,-6.38682 2.85511,-1.87333 5.02727,-3.5699 4.82703,-3.77014 -0.20025,-0.20025 -3.87988,-1.03677 -8.17697,-1.85894 -4.33895,-0.83018 -10.2956,-2.84409 -13.39652,-4.5293 -5.00757,-2.72138 -5.6868,-2.86535 -6.58363,-1.39539 -0.55,0.90147 -2.6875,3.93 -4.75,6.73005 -4.35794,5.91634 -4.48269,6.80821 -1.6038,11.46634 l 2.14619,3.47262 6.61591,-0.37383 c 5.26469,-0.29748 7.5467,-0.98262 11.1733,-3.35459 z"
       style="fill:#ffffff" />
    <path
       id="path5104"
       d="m 394.08136,509.22874 c 8.90712,-2.30806 13.41594,-4.94981 20.44497,-11.97884 11.60467,-11.60467 16.15288,-25.85332 10.84048,-33.96107 l -1.72338,-2.63021 -3.29083,6.82337 c -3.5105,7.27884 -12.16257,16.50988 -18.59598,19.84036 -7.91349,4.09669 -23.54217,8.614 -31.83953,9.20288 l -8.36859,0.59393 4.28873,3.96008 c 11.16542,10.30979 15.30163,11.50324 28.24413,8.1495 z"
       style="fill:#ffffff" />
    <path
       id="path5102"
       d="m 236.48336,502.15832 c 1.87076,-0.78165 5.72827,-2.33836 8.57225,-3.45936 l 5.17087,-2.03816 -1.87538,2.07228 c -2.3584,2.60599 -1.07652,2.60959 5.85433,0.0164 15.46498,-5.78619 34.18941,-23.57008 37.12295,-35.25825 0.65281,-2.601 -3.44888,-7.29097 -4.28445,-4.89894 -0.63351,1.81359 -5.4216,7.38303 -5.91934,6.8853 -0.22672,-0.22672 0.51322,-2.76009 1.64432,-5.62971 l 2.05654,-5.21748 -4.113,-4.91253 c -4.25564,-5.08288 -5.92677,-6.03108 -5.92677,-3.36285 0,2.02142 -2.98989,7.79378 -3.67965,7.10403 -0.29269,-0.2927 0.24907,-2.57783 1.20392,-5.07808 1.90568,-4.98995 1.60836,-9.43948 -1.2058,-18.04526 l -1.62511,-4.96965 -1.80278,3.96965 c -0.99152,2.18331 -3.46392,8.69465 -5.49422,14.46965 -3.86356,10.98953 -5.90692,14.9723 -4.2954,8.37226 0.52001,-2.12974 1.44716,-6.57226 2.06031,-9.87226 0.61316,-3.3 2.208,-8.475 3.54409,-11.5 3.35653,-7.59942 5.34853,-15.6801 4.45848,-18.08614 -0.66121,-1.78743 -0.9511,-1.58595 -2.56925,1.7857 -1.95422,4.07191 -9.84225,22.55629 -10.96448,25.69357 -0.37245,1.04122 -0.88542,1.68489 -1.13993,1.43039 -0.64227,-0.64228 2.86162,-12.76739 6.37876,-22.07352 3.16095,-8.36368 2.91177,-9.11925 -1.72165,-5.22048 -4.09164,3.44289 -5.75958,8.90127 -9.15822,29.97048 -2.89745,17.96221 -18.44552,38.57993 -32.8911,43.61569 -5.53948,1.93107 -3.44786,2.99488 4.65203,2.36603 l 7.75,-0.60169 -3.80202,3.46093 c -3.00782,2.73798 -5.72337,3.94229 -13,5.76533 -10.29154,2.57839 -9.39366,3.31504 3.30084,2.70811 7.55005,-0.36097 9.47552,-0.86839 15.88838,-4.18705 4.01345,-2.07696 7.54483,-3.52866 7.84749,-3.22599 1.06095,1.06095 -2.16781,3.78849 -7.92486,6.69464 -3.19541,1.61303 -5.80983,3.19087 -5.80983,3.50629 0,0.86905 7.84447,-0.63936 11.69768,-2.24933 z"
       style="fill:#9e5d01;fill-opacity:1" />
    <path
       id="path5100"
       d="m 361.22262,503.70333 c -0.9431,-1.52597 -6.8761,-3.89797 -9.74983,-3.89797 -2.8874,0 -6.53592,3.50179 -4.49824,4.31734 2.69504,1.07866 14.95095,0.71792 14.24807,-0.41937 z"
       style="fill:#fe003e;fill-opacity:1" />
    <path
       id="path5098"
       d="m 514.31961,496.588 c 5.91827,-3.02072 15.46607,-11.22853 15.46607,-13.29548 0,-0.78645 -3.76058,1.31643 -4.50332,2.51822 -0.33809,0.54704 -1.24357,0.99462 -2.01218,0.99462 -0.7686,0 3.30896,-4.6125 9.06124,-10.25 9.35395,-9.1673 12.07063,-12.75 9.66802,-12.75 -0.43242,0 -2.79492,1.79834 -5.25,3.99631 -8.291,7.42276 -19.96376,11.14615 -19.96376,6.36806 0,-0.97078 0.71978,-1.22182 2.33841,-0.81557 1.83804,0.46132 3.33589,-0.38254 7,-3.94364 5.67205,-5.51261 5.98466,-7.32079 0.80919,-4.68046 -2.11883,1.08094 -6.79372,2.47756 -10.38865,3.10359 -7.75759,1.35093 -10.7165,0.26565 -15.69722,-5.75743 -5.06496,-6.12496 -5.53947,-9.29612 -3.03319,-20.27086 5.48095,-24.00045 4.28185,-43.08012 -3.28146,-52.21357 l -2.24708,-2.71356 -2.85657,2.3361 -2.85657,2.33611 1.85657,2.8364 c 2.69713,4.12058 2.6815,31.35735 -0.0225,39.2333 -2.55641,7.44603 -2.94428,5.98576 -1.56391,-5.88776 1.57467,-13.54484 0.86997,-28.58262 -1.50963,-32.21434 -3.03157,-4.62678 -4.34889,-3.49661 -3.21514,2.75837 1.09184,6.0237 -0.88896,19.15532 -3.86536,25.62519 -1.17754,2.55964 -1.44692,2.78377 -1.08624,0.90376 2.67569,-13.94678 1.35112,-31.20512 -2.62471,-34.19845 -1.24077,-0.93414 -3.07323,-2.42644 -4.07215,-3.31621 -1.695,-1.5098 -2.1138,-1.37391 -6.27543,2.03624 -9.65393,7.91067 -17.49947,26.82915 -19.48207,46.97842 -0.73295,7.44908 -1.58104,11.48422 -2.6272,12.5 -1.3906,1.35024 -1.47979,0.7528 -0.89325,-5.98381 0.84065,-9.6553 4.27759,-26.50333 6.14211,-30.10892 3.35711,-6.49193 1.63945,-6.8825 -4.37713,-0.99527 -3.20605,3.13712 -7.36855,6.27745 -9.25,6.97851 -5.88375,2.1924 -6.37138,2.68663 -8.10645,8.21641 -4.92295,15.6897 0.99503,36.53678 14.17426,49.93125 5.21579,5.30097 9.29216,7.7635 29.28942,17.69373 14.83479,7.36666 33.20948,8.19929 45.25588,2.05074 z"
       style="fill:#9e5d01;fill-opacity:1" />
    <path
       id="path5096"
       d="m 458.78568,416.66317 c 0,-8.81041 2.72795,-21.82967 5.09325,-24.30781 1.53685,-1.61015 1.03354,2.86735 -1.08035,9.61091 -1.34128,4.27887 -1.99129,9.18287 -2,15.08909 -0.008,5.15807 -0.42341,8.75 -1.0129,8.75 -0.59374,0 -1,-3.71406 -1,-9.14219 z"
       style="fill:#000000" />
    <path
       id="path5094"
       d="m 364.64017,490.32847 c 11.91192,-4.09881 20.32586,-9.46136 41.13526,-26.21718 l 14.51025,-11.68371 0.005,-10.56111 c 0.004,-8.29973 0.50259,-12.1106 2.32903,-17.79755 l 2.32409,-7.23644 -2.43106,-5.26356 c -5.02959,-10.88969 -6.6172,-25.34989 -4.36716,-39.77677 l 0.85985,-5.51322 -4.85774,-1.29925 c -4.73221,-1.26567 -4.91595,-1.23158 -7.10986,1.31898 -1.23865,1.44003 -2.2521,3.29048 -2.2521,4.11212 0,1.56232 -2.79959,7.53059 -3.93771,8.39458 -0.36226,0.275 -1.65509,1.92736 -2.87296,3.67191 -6.88532,9.86295 -29.98659,14.61791 -43.52886,8.95958 -9.37332,-3.91642 -18.98709,-18.54667 -20.75925,-31.59144 -1.18631,-8.73201 -1.77255,-11.04005 -2.80418,-11.04005 -1.39827,0 -5.49058,11.08812 -5.59257,15.15307 -0.11255,4.48611 -2.0621,6.83527 -8.89473,10.71792 -6.3404,3.60293 -9.4003,6.83155 -10.18285,10.74431 -0.52207,2.61033 0.0124,3.65322 3.94731,7.70192 4.97044,5.06989 7.71539,4.68278 14.31095,4.68278 8.68631,0 9.53826,0.15518 7.74559,1.41081 -1.10782,0.77595 -4.61832,1.89221 -7.8011,2.48058 -7.23851,1.33811 -10.56965,0.11568 -17.59702,-6.4576 -4.79098,-4.4814 -5.14041,-4.63181 -8.0045,-3.44546 -3.82766,1.58547 -8.84894,0.65584 -15.15852,-2.80643 -5.67344,-3.11319 -5.91515,-2.95203 -8.4732,5.64915 -5.19741,17.47578 -0.47282,42.29743 10.01846,52.63402 2.81064,2.76921 7.66224,8.23598 10.78131,12.14837 3.11908,3.91239 9.28,10.92605 13.69094,15.58591 16.26518,17.18303 34.66037,22.31123 54.96733,15.32376 z"
       style="fill:#ffe0bd;fill-opacity:1" />
    <path
       id="path5092"
       d="m 324.03568,448.13048 c -7.9614,-2.08377 -8.0277,-3.16766 -0.13685,-2.23725 17.81362,2.10039 33.91131,-2.83969 44.16187,-13.55245 9.74398,-10.18334 12.19911,-17.98285 6.97498,-22.15822 -3.78936,-3.02863 -2.28768,-3.91878 3.36291,-1.99343 6.34114,2.16065 11.10296,6.61623 7.07096,6.61623 -0.72387,0 -2.63495,2.75928 -4.24683,6.13173 -4.05239,8.47859 -14.90505,18.51674 -25.92042,23.97507 -10.00967,4.95999 -20.49049,6.0388 -31.26662,3.21832 z"
       style="fill:#000000" />
    <path
       id="path5090"
       d="m 389.3211,488.2928 c 17.59655,-6.51996 29.15168,-17.64164 29.40871,-28.30553 l 0.0559,-2.3181 -3.25,2.27698 c -1.7875,1.25233 -8.2,7.02944 -14.25,12.83801 -6.05,5.80857 -13.91523,12.49893 -17.47828,14.86747 -7.05831,4.69199 -5.81056,4.83709 5.5137,0.64117 z"
       style="fill:#ffe0bd;fill-opacity:1" />
    <path
       id="path5088"
       d="m 467.78568,380.8417 3.5,-3.16945 -5,0.59787 c -3.02857,0.36213 -8.47908,2.38296 -13.82377,5.12529 -15.65614,8.03309 -12.52064,3.76048 4.29727,-5.85571 l 8.5265,-4.8753 -8.5,0.51748 c -4.675,0.28462 -11.35259,1.44134 -14.83909,2.57048 -11.16957,3.61741 -10.58394,1.3387 0.83909,-3.26496 12.25613,-4.93942 20.09309,-5.28805 26.3731,-1.17323 2.26978,1.48721 2.6269,1.51374 2.6269,0.19509 -10.90184,-9.41851 -25.70603,-24.97132 -38.25375,-29.99018 -18.31281,25.9606 -10.15373,63.26795 -4.6781,72.73274 0,0 7.90983,-3.12857 19.2936,-14.34278 8.87604,-8.74384 17.71325,-17.32414 19.63825,-19.06734 z"
       style="fill:#ffdd00;fill-opacity:1" />
    <path
       id="path5086"
       d="m 261.32766,407.51992 c 7.56618,-4.50034 10.43579,-8.74597 10.45244,-15.46456 0.005,-1.95926 -0.51129,-2.25 -3.99442,-2.25 -2.2,0 -4,-0.45 -4,-1 0,-0.55 0.73529,-1 1.63398,-1 3.86971,0 9.36602,-2.36837 9.36602,-4.03584 0,-3.12878 -2.66127,-4.27893 -8.50521,-3.67578 -6.813,0.70317 -8.13842,-0.84571 -2.03816,-2.38178 7.235,-1.82179 4.85838,-7.03244 -3.79975,-8.3308 -5.82135,-0.87297 -7.0659,-2.5758 -1.88256,-2.5758 4.76884,0 4.99527,-0.20979 4.42443,-4.09919 -0.34475,-2.34894 -1.24024,-3.43803 -3.65725,-4.44792 -1.76039,-0.73554 -3.83636,-2.10325 -4.61326,-3.03936 -1.2824,-1.5452 -1.18293,-1.6323 1.0796,-0.94538 1.37069,0.41615 2.91966,1.15606 3.44216,1.64424 1.7314,1.61769 3.97384,1.10324 2.56909,-0.58939 -0.91997,-1.1085 -0.97653,-2.91731 -0.22668,-7.25 1.16171,-6.71251 0.16004,-8.74118 -3.37793,-8.91586 -1.4949,-0.0738 -2.76045,-0.26602 -7.0407,-0.58482 -3.85647,12.81724 -4.67397,32.01802 -2.45848,44.72768 1.28819,6.63766 5.83793,20.43038 7.66936,23.25 1.6632,2.56062 2.12342,2.65016 4.95732,0.96456 z"
       style="fill:#ffdd00;fill-opacity:1" />
    <path
       id="path5084"
       d="m 519.79029,400.92117 c 12.82365,-18.8797 17.02533,-34.88791 17.6561,-54.73216 -9.44532,-3.51998 -20.67886,-2.3497 -28.4817,0.72999 -7.58979,3.12557 -17.17901,9.67253 -17.17901,11.44615 0,3.94747 1.04669,4.27332 5.58285,1.73801 6.16694,-3.44676 13.12074,-5.10498 18.43456,-4.39593 5.32616,0.71069 5.93912,2.49142 0.98259,2.85454 -5.63059,0.41251 -13.80633,3.45957 -17.5398,6.53701 -4.55676,3.75607 -4.65749,5.91035 -0.2168,4.63677 4.19868,-1.20416 6.98141,-1.17542 10.35434,0.10697 4.00493,1.52267 1.77777,3.02777 -5.45017,3.68317 -6.5735,0.59607 -8.56438,1.97827 -9.37423,6.50821 -0.36873,2.06253 0.0675,3.09241 1.78733,4.21926 1.25132,0.81989 4.40841,4.31705 7.01577,7.77146 5.80023,7.68454 10.49522,12.78074 11.77456,12.78074 0.52727,0 2.6214,-1.74789 4.65361,-3.88419 z"
       style="fill:#ffdd00;fill-opacity:1" />
    <path
       id="path5082"
       d="m 384.50627,387.25731 c 12.19645,-6.07775 19.27941,-19.8744 19.27941,-37.55367 0,-13.06874 -1.16864,-16.7812 -7.17245,-22.78502 -15.51161,-15.51161 -37.58722,-16.78345 -48.26753,-2.78083 -5.3427,7.00463 -10.56002,20.89053 -10.56002,28.10548 0,16.51598 6.42242,28.94225 17.99235,34.81209 7.70845,3.91077 21.09674,4.00488 28.72824,0.20195 z"
       style="fill:#ffffff" />
    <path
       id="path5080"
       d="m 362.42511,352.93476 c 0.98703,-4.20631 0.94432,-4.49208 -0.72658,-4.86197 -0.87294,-0.19325 -3.97346,1.25451 -6.89005,3.21723 -5.85146,3.93774 -7.17779,3.92703 -4.58048,-0.037 1.96855,-3.00438 5.70654,-4.75014 13.66168,-6.38041 6.6705,-1.36701 15.34119,1.22407 20.13371,6.0166 2.97785,2.97784 3.64082,5.91613 1.33487,5.91613 -0.78508,0 -2.24758,1.02866 -3.25,2.28592 -2.14102,2.68531 -6.33629,5.52902 -7.79509,5.66988 -6.48918,0.62661 -13.05247,-6.52684 -11.88806,-11.82638 z"
       style="fill:#000000" />
    <path
       id="path5078"
       d="m 377.15082,359.73278 c 2.8527,-2.24393 3.59394,-6.90109 1.38486,-8.70101 -2.74715,-2.23832 -8.68299,-3.15056 -10.25719,-1.57636 -3.56196,3.56196 0.001,12.34995 5.00719,12.34995 0.67666,0 2.41597,-0.93266 3.86514,-2.07258 z"
       style="fill:#2cffff;fill-opacity:1" />
    <path
       id="path5076"
       d="m 300.24242,387.54494 c 2.6152,-6.10848 4.67149,-8.66825 11.84392,-14.74389 7.77809,-6.58868 11.69934,-11.82844 11.69934,-15.63321 0,-1.13692 -0.97452,-0.71403 -3.5348,1.53393 -4.37701,3.84306 -9.65236,4.21584 -13.15075,0.92928 -2.79671,-2.62738 -2.84759,-4.05439 -0.34138,-9.57569 2.2668,-4.99387 1.30518,-5.46572 -4.76291,-2.33708 -5.66657,2.92162 -8.21016,5.77167 -8.21016,9.19936 0,4.31847 -3.37782,3.62708 -3.80655,-0.77915 -0.49448,-5.08192 8.21227,-12.87039 15.32197,-13.706 8.59863,-1.0106 14.52086,0.18995 18.23458,3.69651 l 3.25,3.06869 0.10669,-3.44616 c 0.4593,-14.8353 -0.544,-18.17813 -7.40275,-24.66485 -12.69055,-12.00219 -26.25776,-10.83998 -41.34224,3.54151 -8.89925,8.48453 -10.86759,13.23939 -10.83635,26.17717 0.0462,19.13796 8.52101,31.98423 24.47465,37.09919 2.10463,0.67477 8.12347,0.41883 8.45674,-0.35961 z"
       style="fill:#ffffff" />
    <path
       id="path5074"
       d="m 488.50196,382.90748 c 2.76161,-4.10892 3.09333,-12.52968 0.75738,-19.22639 -2.51224,-7.20213 -5.75825,-8.33067 -15.04552,-5.23088 -2.71048,0.90467 -5.08608,1.77512 -5.27913,1.93432 -0.19304,0.15921 0.76634,1.78153 2.13195,3.60515 5.87762,7.8489 6.97519,12.36891 3.71904,15.31568 -4.56699,4.13307 -1.44262,7.63336 6.46628,7.2443 4.41158,-0.21701 5.22135,-0.62382 7.25,-3.64218 z"
       style="fill:#ffdd00;fill-opacity:1" />
    <path
       id="path5072"
       d="m 423.53568,351.93166 c 4.15515,-12.59349 4.11724,-13.17821 -1.19393,-18.41424 -3.15211,-3.10752 -4.78839,-5.74905 -5.6289,-9.087 -0.97241,-3.86181 -1.76538,-4.94845 -4.42074,-6.05793 -2.09682,-0.87611 -3.61278,-2.43344 -4.30682,-4.42438 -1.12041,-3.21399 -4.72,-4.92451 -7.84199,-3.72649 -0.91409,0.35077 -2.43539,-0.0817 -3.41905,-0.97185 -1.34703,-1.21905 -2.24042,-1.35323 -3.7239,-0.5593 -1.07344,0.57449 -2.27422,0.72285 -2.66841,0.32971 -0.39419,-0.39315 -4.84085,-0.78356 -9.88148,-0.86757 -5.04063,-0.084 -14.31793,-0.40922 -20.61622,-0.72269 -9.69062,-0.48231 -11.72647,-0.32104 -13.24015,1.04882 -1.65254,1.49554 -2.25243,1.46043 -7.88017,-0.46116 -5.45233,-1.86169 -6.01852,-1.90325 -5.39639,-0.39607 2.44935,5.9338 0.7839,6.5043 -10.52792,3.60635 -6.75194,-1.72977 -10.82207,-1.25091 -7.86808,0.92569 11.27497,8.30781 15.90344,15.46877 16.63851,25.74231 l 0.50426,7.04763 4.89905,-9.27497 c 10.50327,-19.88497 16.79521,-25.20354 29.82233,-25.20882 12.34592,-0.005 24.74665,5.3484 33.75175,14.57065 5.96051,6.10424 8.24825,13.10233 8.24825,25.23098 0,10.42235 -0.62017,9.38342 6.5,10.88909 4.75154,1.0048 4.94995,0.7831 8.25,-9.21876 z"
       style="fill:#ffe0bd;fill-opacity:1" />
    <path
       id="path5070"
       d="m 318.53568,355.25067 c 2.27347,-2.5835 3.18673,-7.14227 1.18269,-5.90371 -0.5877,0.36322 -1.31415,-0.2843 -1.61663,-1.44098 -0.68658,-2.62549 -1.37678,-2.6273 -4.70118,-0.0123 -3.93859,3.09809 -6.07334,7.65436 -4.48372,9.56974 1.76895,2.13145 6.81811,0.96993 9.61884,-2.21273 z"
       style="fill:#2cffff;fill-opacity:1" />
    <path
       id="path5068"
       d="m 471.28568,354.06113 c 5.39621,-1.96678 10.85621,-2.2649 12.94113,-0.7066 2.90944,2.17456 4.87326,1.77839 8.12178,-1.63845 1.6154,-1.6991 4.17459,-3.73565 5.68709,-4.52568 1.5125,-0.79002 2.75,-1.99404 2.75,-2.67561 0,-0.68156 1.40363,-4.11627 3.11918,-7.63269 2.91783,-6.1767 1.92728,-11.5421 2.47938,-16.6349 0.78988,-7.28607 -0.22982,-25.01097 -4.79413,-34.40578 -6.26069,-12.8865 -23.16226,-25.88955 -35.80443,-27.54578 -6.25642,-0.81965 -8.90907,-1.97453 -10.86309,-4.72948 -1.02294,-1.44224 -2.3954,-1.8682 -5.5,-1.707 -6.18801,0.32129 -6.63691,0.1542 -6.63691,-2.47047 0,-1.93055 0.8046,-2.68486 4,-3.75 2.2,-0.73333 4.01782,-1.78333 4.03961,-2.33333 0.0751,-1.89672 -4.26416,-1.65987 -10.18983,0.55618 -4.6975,1.75675 -6.43585,1.99782 -8.29564,1.15044 -1.29406,-0.58961 -3.28538,-0.82816 -4.42516,-0.5301 -1.52992,0.40008 -2.31284,-0.0756 -2.99122,-1.8173 -3.14947,-8.08609 -2.76546,-7.79716 -4.06402,-3.05772 -1.54084,5.62374 -3.08312,6.03931 -8.82106,2.37686 -11.1539,-7.11939 -34.9416,-13.75172 -45.97664,-12.81892 -11.7798,0.99576 -34.75049,4.94796 -32.77854,5.63968 1.20347,0.42216 -2.51688,2.07614 -11.09338,4.93187 -17.63212,5.87097 -22.09288,8.13254 -29.58894,15.00132 -11.48167,10.52086 -17.30772,26.56228 -12.00979,33.06769 2.01266,2.47137 2.07067,2.47965 5.06557,0.72283 3.52752,-2.06924 4.31151,-1.29567 5.52934,5.45581 0.36495,2.02326 1.52001,4.72326 2.56679,6 1.81345,2.21185 1.96686,2.23575 3.25207,0.50651 1.29275,-1.73937 1.52792,-1.71927 5.65459,0.48342 2.36815,1.26405 4.73118,3.09324 5.25117,4.06485 1.07575,2.01005 7.75261,2.48905 9.5561,0.68556 0.7747,-0.7747 2.23692,-0.49133 5.16016,1 6.62927,3.382 8.35466,2.7969 5.65882,-1.91898 -2.98164,-5.21584 -0.71092,-6.69448 4.43641,-2.88889 3.82043,2.82456 12.06359,3.84102 12.06359,1.48756 0,-2.48653 2.09811,-2.82816 6.92025,-1.12681 2.38216,0.84048 5.6332,1.52814 7.22453,1.52814 2.58687,0 2.82686,-0.26479 2.26586,-2.5 -0.89162,-3.5525 1.93696,-3.30625 5.74321,0.5 3.29164,3.29164 9.10946,4.10153 12.8195,1.78457 1.52745,-0.95391 2.66945,-0.95391 5.30743,0 4.57742,1.65522 7.26538,1.52641 9.2343,-0.4425 1.54391,-1.54391 1.81553,-1.46028 3.94956,1.21604 2.0809,2.6097 2.53457,2.76328 4.93373,1.67015 2.54309,-1.15871 2.77564,-0.99508 6.20528,4.36632 l 3.56318,5.57015 5.06755,-0.69697 c 4.68183,-0.64391 5.01007,-0.55504 4.31244,1.16764 -2.78116,6.86751 -1.86907,13.50332 1.95318,14.21003 2.97483,0.55003 4.29577,1.94823 5.03946,5.33422 0.5902,2.6872 0.84064,2.86882 2.15012,1.55934 1.30949,-1.30949 1.24225,-1.95229 -0.57724,-5.51879 -2.25592,-4.42197 -4.06989,-13.41858 -2.36312,-11.7202 0.55272,0.55 1.76298,3.3371 2.68948,6.19355 2.3391,7.21161 5.46956,11.49336 9.95427,13.61515 4.74321,2.2441 5.29905,1.7284 3.86967,-3.59021 -0.63631,-2.36767 -0.7552,-4.60335 -0.27098,-5.09569 0.79442,-0.80774 1.71085,1.71559 3.58724,9.8772 0.72333,3.14621 3.10706,6.5 4.61992,6.5 0.48887,0 0.75663,-0.5758 0.59502,-1.27955 -0.16161,-0.70376 0.13771,-1.49126 0.66516,-1.75 0.52746,-0.25875 1.25582,0.98078 1.61858,2.7545 0.72734,3.5563 3.41741,8.14037 5.82697,9.92959 1.21223,0.90014 2.11017,0.77335 4.07514,-0.57541 1.38617,-0.95146 3.87031,-2.22198 5.52031,-2.82336 z"
       style="fill:#9e5d01;fill-opacity:1" />
    <path
       id="path4993"
       d="m 280.87992,310.69988 c 1.04064,-9.53348 4.46057,-13.5983 3.69732,-4.39452 -0.25086,3.025 -0.10276,5.5 0.32911,5.5 1.79336,0 5.87933,-2.40496 5.87933,-3.46051 0,-2.45135 2.271,-3.54809 3.6334,-1.75469 0.71665,0.94336 1.3173,1.22244 1.3348,0.62019 0.0175,-0.60226 -0.92657,-1.95226 -2.09791,-3 -1.17134,-1.04775 -3.26309,-3.6893 -4.64835,-5.87012 -2.4988,-3.9339 -2.52571,-3.946 -3.417,-1.53662 -1.20388,3.2544 -1.32906,3.3268 -3.62651,2.09724 -2.66771,-1.42771 -4.17843,2.77971 -4.17843,11.63707 0,8.09537 2.2156,8.21134 3.09424,0.16196 z"
       style="fill:#9e5d01;fill-opacity:1" />
  </g>
</svg>
